<svg xmlns="http://www.w3.org/2000/svg" xmlns:xlink="http://www.w3.org/1999/xlink" width="500" zoomAndPan="magnify" viewBox="0 0 375 374.999991" height="500" preserveAspectRatio="xMidYMid meet" version="1.0"><defs><g/><clipPath id="dd7e0fe7c5"><path d="M 69.386719 219 L 130.136719 219 L 130.136719 221.671875 L 69.386719 221.671875 Z M 69.386719 219 " clip-rule="nonzero"/></clipPath><clipPath id="53962bf873"><path d="M 82 151.921875 L 118 151.921875 L 118 187 L 82 187 Z M 82 151.921875 " clip-rule="nonzero"/></clipPath><clipPath id="892cfa7b30"><path d="M 82.074219 155.746094 L 117.65625 155.746094 L 117.65625 191.328125 L 82.074219 191.328125 Z M 82.074219 155.746094 " clip-rule="nonzero"/></clipPath><clipPath id="3551d0da30"><path d="M 99.863281 155.746094 C 90.039062 155.746094 82.074219 163.710938 82.074219 173.535156 C 82.074219 183.363281 90.039062 191.328125 99.863281 191.328125 C 109.691406 191.328125 117.65625 183.363281 117.65625 173.535156 C 117.65625 163.710938 109.691406 155.746094 99.863281 155.746094 Z M 99.863281 155.746094 " clip-rule="nonzero"/></clipPath><clipPath id="13f84b79e4"><path d="M 0.0742188 0.746094 L 35.65625 0.746094 L 35.65625 36.328125 L 0.0742188 36.328125 Z M 0.0742188 0.746094 " clip-rule="nonzero"/></clipPath><clipPath id="de115df9d5"><path d="M 17.863281 0.746094 C 8.039062 0.746094 0.0742188 8.710938 0.0742188 18.535156 C 0.0742188 28.363281 8.039062 36.328125 17.863281 36.328125 C 27.691406 36.328125 35.65625 28.363281 35.65625 18.535156 C 35.65625 8.710938 27.691406 0.746094 17.863281 0.746094 Z M 17.863281 0.746094 " clip-rule="nonzero"/></clipPath><clipPath id="4d9915a584"><rect x="0" width="36" y="0" height="37"/></clipPath><clipPath id="5115a16be7"><path d="M 82.074219 151.171875 L 117.65625 151.171875 L 117.65625 186.75 L 82.074219 186.75 Z M 82.074219 151.171875 " clip-rule="nonzero"/></clipPath><clipPath id="7a33384c26"><path d="M 99.863281 151.171875 C 90.039062 151.171875 82.074219 159.136719 82.074219 168.960938 C 82.074219 178.785156 90.039062 186.75 99.863281 186.75 C 109.691406 186.75 117.65625 178.785156 117.65625 168.960938 C 117.65625 159.136719 109.691406 151.171875 99.863281 151.171875 Z M 99.863281 151.171875 " clip-rule="nonzero"/></clipPath><clipPath id="cca8b7f18d"><path d="M 0.0742188 0.171875 L 35.65625 0.171875 L 35.65625 35.75 L 0.0742188 35.75 Z M 0.0742188 0.171875 " clip-rule="nonzero"/></clipPath><clipPath id="059434785e"><path d="M 17.863281 0.171875 C 8.039062 0.171875 0.0742188 8.136719 0.0742188 17.960938 C 0.0742188 27.785156 8.039062 35.75 17.863281 35.75 C 27.691406 35.75 35.65625 27.785156 35.65625 17.960938 C 35.65625 8.136719 27.691406 0.171875 17.863281 0.171875 Z M 17.863281 0.171875 " clip-rule="nonzero"/></clipPath><clipPath id="071e2a6e02"><rect x="0" width="36" y="0" height="36"/></clipPath><clipPath id="a172156cf7"><path d="M 92.410156 156.410156 L 107.410156 156.410156 L 107.410156 181.910156 L 92.410156 181.910156 Z M 92.410156 156.410156 " clip-rule="nonzero"/></clipPath><clipPath id="912cd37036"><path d="M 0.238281 0.199219 L 5 0.199219 L 5 5 L 0.238281 5 Z M 0.238281 0.199219 " clip-rule="nonzero"/></clipPath><clipPath id="bd752e6878"><path d="M 6 0.199219 L 11 0.199219 L 11 5 L 6 5 Z M 6 0.199219 " clip-rule="nonzero"/></clipPath><clipPath id="cd7718d750"><path d="M 12 0.199219 L 16 0.199219 L 16 5 L 12 5 Z M 12 0.199219 " clip-rule="nonzero"/></clipPath><clipPath id="2e7408e55d"><path d="M 18 0.199219 L 22 0.199219 L 22 5 L 18 5 Z M 18 0.199219 " clip-rule="nonzero"/></clipPath><clipPath id="566925aa6c"><path d="M 23 0.199219 L 27 0.199219 L 27 5 L 23 5 Z M 23 0.199219 " clip-rule="nonzero"/></clipPath><clipPath id="af91f9f746"><path d="M 28 0.199219 L 33 0.199219 L 33 5 L 28 5 Z M 28 0.199219 " clip-rule="nonzero"/></clipPath><clipPath id="63179cafd9"><path d="M 35 0.199219 L 38 0.199219 L 38 5 L 35 5 Z M 35 0.199219 " clip-rule="nonzero"/></clipPath><clipPath id="b24b313fd9"><path d="M 40 0.199219 L 43 0.199219 L 43 5 L 40 5 Z M 40 0.199219 " clip-rule="nonzero"/></clipPath><clipPath id="193c6c0ff7"><path d="M 48 0.199219 L 51 0.199219 L 51 5 L 48 5 Z M 48 0.199219 " clip-rule="nonzero"/></clipPath><clipPath id="02aecca5b9"><path d="M 53 0.199219 L 54 0.199219 L 54 5 L 53 5 Z M 53 0.199219 " clip-rule="nonzero"/></clipPath><clipPath id="74e9f9cb21"><path d="M 56 0.199219 L 60 0.199219 L 60 5 L 56 5 Z M 56 0.199219 " clip-rule="nonzero"/></clipPath><clipPath id="6c27040ed6"><path d="M 62 0.199219 L 66 0.199219 L 66 5 L 62 5 Z M 62 0.199219 " clip-rule="nonzero"/></clipPath><clipPath id="54e11987ec"><path d="M 68 0.199219 L 72 0.199219 L 72 5 L 68 5 Z M 68 0.199219 " clip-rule="nonzero"/></clipPath><clipPath id="93626aa41f"><path d="M 73 0.199219 L 78 0.199219 L 78 5 L 73 5 Z M 73 0.199219 " clip-rule="nonzero"/></clipPath><clipPath id="a61d0e9575"><path d="M 80 0.199219 L 83 0.199219 L 83 5 L 80 5 Z M 80 0.199219 " clip-rule="nonzero"/></clipPath><clipPath id="2c9e5bf29b"><path d="M 85 0.199219 L 86 0.199219 L 86 5 L 85 5 Z M 85 0.199219 " clip-rule="nonzero"/></clipPath><clipPath id="4b15ff5c2a"><path d="M 88 0.199219 L 92 0.199219 L 92 5 L 88 5 Z M 88 0.199219 " clip-rule="nonzero"/></clipPath><clipPath id="c74437040d"><path d="M 93 0.199219 L 98 0.199219 L 98 5 L 93 5 Z M 93 0.199219 " clip-rule="nonzero"/></clipPath><clipPath id="9fd46339ff"><rect x="0" width="100" y="0" height="6"/></clipPath></defs><rect x="-37.5" width="450" fill="#ffffff" y="-37.499999" height="449.999989" fill-opacity="1"/><rect x="-37.5" width="450" fill="#02142c" y="-37.499999" height="449.999989" fill-opacity="1"/><path fill="#c89344" d="M 112.921875 210.691406 C 112.324219 210.691406 111.835938 211.183594 111.835938 211.78125 C 111.835938 212.378906 112.324219 212.871094 112.921875 212.871094 L 121.628906 212.871094 C 122.230469 212.871094 122.71875 212.378906 122.71875 211.78125 C 122.71875 211.183594 122.230469 210.691406 121.628906 210.691406 L 120.542969 210.691406 L 120.542969 197.632812 L 121.628906 197.632812 C 122.230469 197.632812 122.71875 197.140625 122.71875 196.542969 C 122.71875 195.945312 122.230469 195.457031 121.628906 195.457031 L 112.921875 195.457031 C 112.324219 195.457031 111.835938 195.945312 111.835938 196.542969 C 111.835938 197.140625 112.324219 197.632812 112.921875 197.632812 L 114.011719 197.632812 L 114.011719 210.691406 Z M 112.921875 210.691406 " fill-opacity="1" fill-rule="nonzero"/><path fill="#c89344" d="M 74.832031 215.046875 C 74.230469 215.046875 73.742188 215.535156 73.742188 216.132812 C 73.742188 216.734375 74.230469 217.222656 74.832031 217.222656 L 124.894531 217.222656 C 125.496094 217.222656 125.984375 216.734375 125.984375 216.132812 C 125.984375 215.535156 125.496094 215.046875 124.894531 215.046875 Z M 74.832031 215.046875 " fill-opacity="1" fill-rule="nonzero"/><g clip-path="url(#dd7e0fe7c5)"><path fill="#c89344" d="M 69.386719 220.488281 C 69.386719 221.085938 69.878906 221.578125 70.476562 221.578125 L 129.25 221.578125 C 129.847656 221.578125 130.335938 221.085938 130.335938 220.488281 C 130.335938 219.890625 129.847656 219.398438 129.25 219.398438 L 70.476562 219.398438 C 69.878906 219.398438 69.386719 219.890625 69.386719 220.488281 Z M 69.386719 220.488281 " fill-opacity="1" fill-rule="nonzero"/></g><path fill="#c89344" d="M 78.09375 210.691406 C 77.496094 210.691406 77.007812 211.183594 77.007812 211.78125 C 77.007812 212.378906 77.496094 212.871094 78.09375 212.871094 L 86.800781 212.871094 C 87.402344 212.871094 87.890625 212.378906 87.890625 211.78125 C 87.890625 211.183594 87.402344 210.691406 86.800781 210.691406 L 85.714844 210.691406 L 85.714844 197.632812 L 86.800781 197.632812 C 87.402344 197.632812 87.890625 197.140625 87.890625 196.542969 C 87.890625 195.945312 87.402344 195.457031 86.800781 195.457031 L 78.09375 195.457031 C 77.496094 195.457031 77.007812 195.945312 77.007812 196.542969 C 77.007812 197.140625 77.496094 197.632812 78.09375 197.632812 L 79.183594 197.632812 L 79.183594 210.691406 Z M 78.09375 210.691406 " fill-opacity="1" fill-rule="nonzero"/><path fill="#c89344" d="M 95.507812 210.691406 C 94.910156 210.691406 94.421875 211.183594 94.421875 211.78125 C 94.421875 212.378906 94.910156 212.871094 95.507812 212.871094 L 104.214844 212.871094 C 104.816406 212.871094 105.304688 212.378906 105.304688 211.78125 C 105.304688 211.183594 104.816406 210.691406 104.214844 210.691406 L 103.128906 210.691406 L 103.128906 197.632812 L 104.214844 197.632812 C 104.816406 197.632812 105.304688 197.140625 105.304688 196.542969 C 105.304688 195.945312 104.816406 195.457031 104.214844 195.457031 L 95.507812 195.457031 C 94.910156 195.457031 94.421875 195.945312 94.421875 196.542969 C 94.421875 197.140625 94.910156 197.632812 95.507812 197.632812 L 96.597656 197.632812 L 96.597656 210.691406 Z M 95.507812 210.691406 " fill-opacity="1" fill-rule="nonzero"/><path fill="#c89344" d="M 112.976562 183.917969 L 121.03125 191.15625 L 78.859375 191.15625 L 86.75 183.917969 C 86.203125 183.429688 85.714844 182.9375 85.277344 182.394531 L 75.15625 191.644531 C 74.175781 192.515625 73.851562 193.277344 74.992188 193.277344 L 124.460938 193.277344 C 125.601562 193.277344 125.710938 192.570312 124.734375 191.699219 L 114.449219 182.394531 C 114.011719 182.9375 113.523438 183.429688 112.976562 183.917969 Z M 112.976562 183.917969 " fill-opacity="1" fill-rule="nonzero"/><path fill="#c89344" d="M 102.585938 174.339844 C 103.507812 173.144531 102.910156 171.566406 101.605469 171.074219 C 101.386719 171.019531 101.167969 170.914062 101.007812 170.859375 L 101.007812 175.210938 C 101.605469 175.101562 102.203125 174.832031 102.585938 174.339844 Z M 102.585938 174.339844 " fill-opacity="1" fill-rule="nonzero"/><path fill="#c89344" d="M 97.140625 166.832031 C 97.523438 167.429688 98.121094 167.757812 98.773438 167.917969 L 98.773438 164.109375 C 98.71875 164.109375 98.664062 164.109375 98.613281 164.164062 C 97.578125 164.492188 96.488281 165.6875 97.140625 166.832031 Z M 97.140625 166.832031 " fill-opacity="1" fill-rule="nonzero"/><g clip-path="url(#53962bf873)"><path fill="#c89344" d="M 82.449219 169.335938 C 82.449219 175.917969 86.09375 181.578125 91.429688 184.570312 L 88.980469 184.570312 C 88.378906 184.570312 87.890625 185.0625 87.890625 185.660156 C 87.890625 186.257812 88.378906 186.75 88.980469 186.75 L 110.746094 186.75 C 111.34375 186.75 111.835938 186.257812 111.835938 185.660156 C 111.835938 185.0625 111.34375 184.570312 110.746094 184.570312 L 108.296875 184.570312 C 113.632812 181.578125 117.277344 175.917969 117.277344 169.335938 C 117.277344 159.703125 109.496094 151.921875 99.863281 151.921875 C 90.230469 151.921875 82.449219 159.703125 82.449219 169.335938 Z M 100.953125 159.59375 L 100.953125 161.988281 C 101.714844 162.097656 102.421875 162.367188 103.074219 162.75 C 103.617188 163.074219 104.109375 163.566406 104.488281 164.164062 C 105.140625 165.089844 105.359375 165.90625 105.25 166.667969 C 105.195312 167.210938 104.597656 167.59375 104.109375 167.429688 C 103.617188 167.320312 103.292969 166.777344 103.074219 166.339844 C 102.855469 165.742188 102.476562 165.144531 101.984375 164.761719 C 101.660156 164.546875 101.332031 164.382812 100.953125 164.273438 L 100.953125 168.519531 C 101.386719 168.625 101.820312 168.789062 102.257812 168.898438 C 104.324219 169.496094 105.523438 171.402344 105.25 173.632812 C 105.085938 174.777344 104.378906 175.753906 103.453125 176.410156 C 102.691406 176.898438 101.820312 177.226562 100.953125 177.332031 L 100.953125 179.128906 C 100.953125 179.78125 100.460938 180.273438 99.863281 180.273438 C 99.265625 180.273438 98.773438 179.78125 98.773438 179.128906 L 98.773438 177.332031 C 97.25 177.117188 96.054688 176.410156 95.238281 175.15625 C 95.019531 174.832031 94.855469 174.503906 94.691406 174.175781 C 94.476562 173.6875 94.3125 172.925781 94.585938 172.382812 C 94.910156 171.675781 95.835938 171.78125 96.273438 172.328125 C 96.652344 172.816406 96.816406 173.46875 97.195312 174.015625 C 97.578125 174.503906 98.175781 174.886719 98.828125 175.101562 L 98.828125 170.367188 C 97.6875 170.042969 96.488281 169.714844 95.617188 168.734375 C 94.800781 167.808594 94.691406 166.449219 94.910156 165.253906 C 95.292969 163.566406 96.707031 162.53125 98.230469 162.097656 C 98.394531 162.042969 98.613281 161.988281 98.773438 161.988281 L 98.773438 159.648438 C 98.773438 158.996094 99.265625 158.503906 99.863281 158.503906 C 100.460938 158.449219 100.953125 158.941406 100.953125 159.59375 Z M 100.953125 159.59375 " fill-opacity="1" fill-rule="nonzero"/></g><g clip-path="url(#892cfa7b30)"><g clip-path="url(#3551d0da30)"><g transform="matrix(1, 0, 0, 1, 82, 155)"><g clip-path="url(#4d9915a584)"><g clip-path="url(#13f84b79e4)"><g clip-path="url(#de115df9d5)"><path fill="#02142c" d="M 0.0742188 0.746094 L 35.65625 0.746094 L 35.65625 36.328125 L 0.0742188 36.328125 Z M 0.0742188 0.746094 " fill-opacity="1" fill-rule="nonzero"/></g></g></g></g></g></g><g clip-path="url(#5115a16be7)"><g clip-path="url(#7a33384c26)"><g transform="matrix(1, 0, 0, 1, 82, 151)"><g clip-path="url(#071e2a6e02)"><g clip-path="url(#cca8b7f18d)"><g clip-path="url(#059434785e)"><path fill="#c89344" d="M 0.0742188 0.171875 L 35.65625 0.171875 L 35.65625 35.75 L 0.0742188 35.75 Z M 0.0742188 0.171875 " fill-opacity="1" fill-rule="nonzero"/></g></g></g></g></g></g><g clip-path="url(#a172156cf7)"><path fill="#02142c" d="M 105.550781 169.53125 C 104.859375 169.058594 103.878906 168.679688 102.632812 168.414062 C 102.605469 168.40625 102.585938 168.386719 102.585938 168.359375 C 102.585938 168.359375 102.585938 162.53125 102.585938 162.523438 C 102.585938 162.488281 102.632812 162.460938 102.667969 162.476562 C 103.046875 162.683594 103.375 162.949219 103.640625 163.261719 C 103.929688 163.613281 104.148438 164.066406 104.308594 164.644531 C 104.367188 164.871094 104.511719 165.070312 104.730469 165.222656 C 105.261719 165.574219 106.066406 165.476562 106.457031 165.011719 C 106.640625 164.792969 106.71875 164.515625 106.667969 164.25 C 106.429688 162.902344 105.792969 161.910156 104.71875 161.210938 C 104.089844 160.796875 103.382812 160.472656 102.625 160.25 C 102.601562 160.246094 102.585938 160.222656 102.585938 160.199219 L 102.585938 157.371094 C 102.601562 157.007812 102.46875 156.722656 102.214844 156.566406 C 101.976562 156.425781 101.667969 156.425781 101.429688 156.566406 C 101.171875 156.722656 101.039062 157.003906 101.054688 157.355469 C 101.054688 157.355469 101.054688 159.875 101.054688 159.875 C 101.054688 159.910156 101.027344 159.929688 100.996094 159.929688 C 100.21875 159.851562 99.535156 159.839844 98.773438 159.894531 C 98.742188 159.898438 98.714844 159.875 98.714844 159.84375 L 98.714844 157.371094 C 98.726562 157.007812 98.597656 156.722656 98.339844 156.566406 C 98.101562 156.425781 97.796875 156.425781 97.558594 156.566406 C 97.300781 156.722656 97.167969 157.003906 97.183594 157.355469 L 97.183594 160.109375 C 97.183594 160.136719 97.167969 160.15625 97.140625 160.160156 C 96.195312 160.417969 95.390625 160.832031 94.75 161.394531 C 93.59375 162.40625 93.003906 163.71875 93.003906 165.300781 C 93.003906 166.777344 93.585938 167.859375 94.785156 168.601562 C 95.296875 168.921875 96.089844 169.222656 97.148438 169.5 C 97.167969 169.503906 97.183594 169.523438 97.183594 169.546875 L 97.183594 176.101562 C 97.183594 176.140625 97.144531 176.167969 97.109375 176.152344 C 96.40625 175.855469 95.847656 175.417969 95.445312 174.855469 C 95.128906 174.414062 94.914062 173.890625 94.785156 173.253906 C 94.691406 172.761719 94.199219 172.40625 93.621094 172.40625 C 93.25 172.40625 92.898438 172.5625 92.679688 172.820312 C 92.496094 173.03125 92.414062 173.292969 92.457031 173.558594 C 92.667969 174.910156 93.292969 176.035156 94.3125 176.894531 C 95.082031 177.554688 96.035156 178.023438 97.140625 178.289062 C 97.152344 178.292969 97.183594 178.300781 97.183594 178.371094 L 97.183594 181.039062 C 97.167969 181.402344 97.300781 181.691406 97.558594 181.847656 C 97.675781 181.917969 97.8125 181.953125 97.945312 181.953125 C 98.085938 181.953125 98.222656 181.914062 98.339844 181.839844 C 98.59375 181.691406 98.726562 181.402344 98.714844 181.054688 L 98.714844 178.601562 C 98.726562 178.566406 98.734375 178.558594 98.769531 178.542969 C 99.46875 178.601562 100.253906 178.597656 100.992188 178.535156 C 101.019531 178.53125 101.039062 178.542969 101.054688 178.59375 L 101.054688 181.039062 C 101.039062 181.40625 101.175781 181.691406 101.429688 181.839844 C 101.667969 181.984375 101.972656 181.988281 102.214844 181.84375 C 102.472656 181.691406 102.605469 181.40625 102.589844 181.054688 L 102.589844 178.320312 C 102.585938 178.296875 102.605469 178.269531 102.628906 178.261719 C 103.496094 178.054688 104.316406 177.734375 105.074219 177.3125 C 106.585938 176.46875 107.320312 175.097656 107.320312 173.121094 C 107.320312 171.535156 106.742188 170.359375 105.550781 169.53125 Z M 97.183594 167.046875 C 97.183594 167.0625 97.171875 167.082031 97.15625 167.09375 C 97.148438 167.097656 97.128906 167.101562 97.113281 167.101562 C 96.863281 167.015625 96.667969 166.9375 96.519531 166.863281 C 95.71875 166.4375 95.328125 165.792969 95.328125 164.886719 C 95.328125 164.085938 95.667969 163.371094 96.339844 162.757812 C 96.550781 162.566406 96.808594 162.402344 97.105469 162.269531 C 97.125 162.261719 97.144531 162.265625 97.160156 162.277344 C 97.175781 162.285156 97.183594 162.300781 97.183594 162.320312 Z M 101.054688 176.542969 C 101.054688 176.570312 101.035156 176.59375 101.007812 176.597656 C 100.355469 176.671875 99.535156 176.671875 98.761719 176.582031 C 98.734375 176.578125 98.714844 176.550781 98.714844 176.527344 C 98.714844 176.527344 98.714844 169.945312 98.714844 169.925781 C 98.714844 169.890625 98.75 169.871094 98.78125 169.875 C 98.78125 169.875 100.96875 170.339844 101.015625 170.355469 C 101.039062 170.359375 101.054688 170.378906 101.054688 170.402344 Z M 101.054688 168.007812 C 101.054688 168.023438 101.046875 168.042969 101.035156 168.050781 C 101.023438 168.058594 101.003906 168.0625 100.992188 168.058594 L 99.960938 167.835938 C 99.617188 167.761719 98.859375 167.585938 98.789062 167.566406 C 98.757812 167.558594 98.714844 167.546875 98.714844 167.507812 L 98.714844 161.9375 C 98.714844 161.90625 98.738281 161.886719 98.761719 161.882812 C 99.027344 161.855469 99.320312 161.84375 99.625 161.84375 C 100.128906 161.84375 100.582031 161.878906 101.011719 161.949219 C 101.035156 161.953125 101.054688 161.976562 101.054688 162 Z M 102.65625 176.242188 C 102.628906 176.25 102.585938 176.226562 102.585938 176.191406 C 102.585938 176.191406 102.585938 170.851562 102.585938 170.851562 C 102.585938 170.8125 102.625 170.789062 102.660156 170.800781 C 103.191406 170.984375 103.613281 171.175781 103.949219 171.386719 C 104.605469 171.808594 104.9375 172.523438 104.9375 173.507812 C 104.9375 174.8125 104.171875 175.734375 102.65625 176.242188 Z M 102.65625 176.242188 " fill-opacity="1" fill-rule="nonzero"/></g><g fill="#ffffff" fill-opacity="1"><g transform="translate(130.340929, 198.451451)"><g><path d="M 7.078125 0 L 2.15625 0 L 2.15625 -21.09375 L 6.484375 -21.09375 L 13.046875 -12.015625 L 13.046875 -12.03125 L 19.703125 -21.09375 L 23.984375 -21.09375 L 23.984375 0 L 19.078125 0 L 19.078125 -13.265625 L 13.671875 -5.671875 L 12.421875 -5.671875 L 7.078125 -13.3125 Z M 7.078125 0 "/></g></g></g><g fill="#ffffff" fill-opacity="1"><g transform="translate(154.944912, 198.451451)"><g><path d="M 3.484375 5.484375 L 0.71875 5.484375 L 0.71875 1.578125 L 3.390625 1.578125 C 4.140625 1.578125 4.695312 1.421875 5.0625 1.109375 C 5.4375 0.804688 5.75 0.304688 6 -0.390625 L 6.21875 -1 L 0.265625 -16.046875 L 5.296875 -16.046875 L 8.328125 -7.859375 L 8.78125 -5.96875 L 9.21875 -7.859375 L 12.1875 -16.03125 L 17.28125 -16.0625 L 11.109375 -0.28125 C 10.609375 0.976562 10.101562 1.988281 9.59375 2.75 C 9.082031 3.519531 8.523438 4.101562 7.921875 4.5 C 7.328125 4.894531 6.664062 5.15625 5.9375 5.28125 C 5.21875 5.414062 4.398438 5.484375 3.484375 5.484375 Z M 3.484375 5.484375 "/></g></g></g><g fill="#ffffff" fill-opacity="1"><g transform="translate(170.787585, 198.451451)"><g><path d="M 7.078125 0 L 2.15625 0 L 2.15625 -21.09375 L 17.03125 -21.09375 L 17.03125 -16.71875 L 7.078125 -16.71875 L 7.078125 -11.875 L 15.625 -11.875 L 15.625 -7.765625 L 7.078125 -7.765625 Z M 7.078125 0 "/></g></g></g><g fill="#ffffff" fill-opacity="1"><g transform="translate(187.172995, 198.451451)"><g><path d="M 4.21875 -17.96875 C 3.625 -17.96875 3.117188 -18.082031 2.703125 -18.3125 C 2.285156 -18.539062 1.960938 -18.847656 1.734375 -19.234375 C 1.515625 -19.628906 1.40625 -20.0625 1.40625 -20.53125 C 1.40625 -21.007812 1.515625 -21.441406 1.734375 -21.828125 C 1.953125 -22.210938 2.269531 -22.523438 2.6875 -22.765625 C 3.113281 -23.003906 3.628906 -23.125 4.234375 -23.125 C 4.859375 -23.125 5.378906 -23.003906 5.796875 -22.765625 C 6.222656 -22.523438 6.546875 -22.210938 6.765625 -21.828125 C 6.984375 -21.441406 7.09375 -21.007812 7.09375 -20.53125 C 7.09375 -19.8125 6.84375 -19.203125 6.34375 -18.703125 C 5.851562 -18.210938 5.144531 -17.96875 4.21875 -17.96875 Z M 6.625 0 L 1.84375 0 L 1.84375 -16.0625 L 6.625 -16.0625 Z M 6.625 0 "/></g></g></g><g fill="#ffffff" fill-opacity="1"><g transform="translate(194.130304, 198.451451)"><g><path d="M 6.625 0 L 1.84375 0 L 1.84375 -16.0625 L 6.40625 -16.0625 L 6.40625 -14.125 C 6.71875 -14.613281 7.125 -15.039062 7.625 -15.40625 C 8.132812 -15.769531 8.710938 -16.054688 9.359375 -16.265625 C 10.015625 -16.472656 10.710938 -16.578125 11.453125 -16.578125 C 12.910156 -16.578125 14.113281 -16.257812 15.0625 -15.625 C 16.007812 -14.988281 16.710938 -14.078125 17.171875 -12.890625 C 17.640625 -11.703125 17.875 -10.28125 17.875 -8.625 L 17.875 0 L 13.09375 0 L 13.09375 -8.515625 C 13.09375 -9.398438 12.960938 -10.113281 12.703125 -10.65625 C 12.453125 -11.207031 12.101562 -11.601562 11.65625 -11.84375 C 11.21875 -12.082031 10.695312 -12.203125 10.09375 -12.203125 C 9.5 -12.203125 8.929688 -12.050781 8.390625 -11.75 C 7.859375 -11.445312 7.429688 -10.984375 7.109375 -10.359375 C 6.785156 -9.734375 6.625 -8.9375 6.625 -7.96875 Z M 6.625 0 "/></g></g></g><g fill="#ffffff" fill-opacity="1"><g transform="translate(212.267975, 198.451451)"><g><path d="M 8.3125 0.53125 C 7.238281 0.53125 6.25 0.304688 5.34375 -0.140625 C 4.4375 -0.585938 3.648438 -1.203125 2.984375 -1.984375 C 2.328125 -2.773438 1.816406 -3.6875 1.453125 -4.71875 C 1.097656 -5.75 0.921875 -6.851562 0.921875 -8.03125 C 0.921875 -9.195312 1.101562 -10.296875 1.46875 -11.328125 C 1.832031 -12.367188 2.34375 -13.28125 3 -14.0625 C 3.664062 -14.851562 4.445312 -15.46875 5.34375 -15.90625 C 6.25 -16.351562 7.226562 -16.578125 8.28125 -16.578125 C 9.46875 -16.578125 10.519531 -16.351562 11.4375 -15.90625 C 12.351562 -15.46875 13.054688 -14.832031 13.546875 -14 L 13.546875 -16.0625 L 18.0625 -16.0625 L 18.0625 0 L 13.53125 0 L 13.53125 -2.03125 C 13.039062 -1.21875 12.335938 -0.585938 11.421875 -0.140625 C 10.515625 0.304688 9.476562 0.53125 8.3125 0.53125 Z M 9.484375 -3.875 C 10.210938 -3.875 10.863281 -4.054688 11.4375 -4.421875 C 12.019531 -4.796875 12.484375 -5.296875 12.828125 -5.921875 C 13.171875 -6.546875 13.34375 -7.25 13.34375 -8.03125 C 13.34375 -8.8125 13.171875 -9.515625 12.828125 -10.140625 C 12.484375 -10.765625 12.019531 -11.257812 11.4375 -11.625 C 10.851562 -12 10.207031 -12.1875 9.5 -12.1875 C 8.789062 -12.1875 8.144531 -12.019531 7.5625 -11.6875 C 6.976562 -11.363281 6.507812 -10.890625 6.15625 -10.265625 C 5.8125 -9.648438 5.640625 -8.90625 5.640625 -8.03125 C 5.640625 -7.125 5.816406 -6.363281 6.171875 -5.75 C 6.535156 -5.132812 7.007812 -4.664062 7.59375 -4.34375 C 8.175781 -4.03125 8.804688 -3.875 9.484375 -3.875 Z M 9.484375 -3.875 "/></g></g></g><g fill="#ffffff" fill-opacity="1"><g transform="translate(230.653754, 198.451451)"><g><path d="M 6.625 0 L 1.84375 0 L 1.84375 -16.0625 L 6.40625 -16.0625 L 6.40625 -14.125 C 6.71875 -14.613281 7.125 -15.039062 7.625 -15.40625 C 8.132812 -15.769531 8.710938 -16.054688 9.359375 -16.265625 C 10.015625 -16.472656 10.710938 -16.578125 11.453125 -16.578125 C 12.910156 -16.578125 14.113281 -16.257812 15.0625 -15.625 C 16.007812 -14.988281 16.710938 -14.078125 17.171875 -12.890625 C 17.640625 -11.703125 17.875 -10.28125 17.875 -8.625 L 17.875 0 L 13.09375 0 L 13.09375 -8.515625 C 13.09375 -9.398438 12.960938 -10.113281 12.703125 -10.65625 C 12.453125 -11.207031 12.101562 -11.601562 11.65625 -11.84375 C 11.21875 -12.082031 10.695312 -12.203125 10.09375 -12.203125 C 9.5 -12.203125 8.929688 -12.050781 8.390625 -11.75 C 7.859375 -11.445312 7.429688 -10.984375 7.109375 -10.359375 C 6.785156 -9.734375 6.625 -8.9375 6.625 -7.96875 Z M 6.625 0 "/></g></g></g><g fill="#ffffff" fill-opacity="1"><g transform="translate(248.791425, 198.451451)"><g><path d="M 9.328125 0.515625 C 8.078125 0.515625 6.9375 0.289062 5.90625 -0.15625 C 4.882812 -0.601562 4 -1.21875 3.25 -2 C 2.507812 -2.78125 1.9375 -3.6875 1.53125 -4.71875 C 1.125 -5.757812 0.921875 -6.863281 0.921875 -8.03125 C 0.921875 -9.195312 1.125 -10.296875 1.53125 -11.328125 C 1.9375 -12.359375 2.507812 -13.265625 3.25 -14.046875 C 4 -14.835938 4.882812 -15.457031 5.90625 -15.90625 C 6.9375 -16.351562 8.078125 -16.578125 9.328125 -16.578125 C 10.429688 -16.578125 11.441406 -16.410156 12.359375 -16.078125 C 13.273438 -15.753906 14.085938 -15.289062 14.796875 -14.6875 C 15.503906 -14.082031 16.09375 -13.382812 16.5625 -12.59375 C 17.03125 -11.800781 17.367188 -10.9375 17.578125 -10 L 12.734375 -10 C 12.441406 -10.769531 11.988281 -11.320312 11.375 -11.65625 C 10.769531 -11.988281 10.09375 -12.15625 9.34375 -12.15625 C 8.707031 -12.15625 8.109375 -12 7.546875 -11.6875 C 6.984375 -11.375 6.523438 -10.910156 6.171875 -10.296875 C 5.816406 -9.679688 5.640625 -8.925781 5.640625 -8.03125 C 5.640625 -7.144531 5.816406 -6.390625 6.171875 -5.765625 C 6.523438 -5.148438 6.984375 -4.679688 7.546875 -4.359375 C 8.109375 -4.035156 8.707031 -3.875 9.34375 -3.875 C 10.09375 -3.875 10.769531 -4.054688 11.375 -4.421875 C 11.988281 -4.796875 12.441406 -5.429688 12.734375 -6.328125 L 17.578125 -6.328125 C 17.390625 -5.335938 17.0625 -4.425781 16.59375 -3.59375 C 16.125 -2.757812 15.53125 -2.035156 14.8125 -1.421875 C 14.101562 -0.804688 13.285156 -0.332031 12.359375 0 C 11.441406 0.34375 10.429688 0.515625 9.328125 0.515625 Z M 9.328125 0.515625 "/></g></g></g><g fill="#ffffff" fill-opacity="1"><g transform="translate(265.517983, 198.451451)"><g><path d="M 17.640625 -8.15625 C 17.640625 -7.894531 17.628906 -7.671875 17.609375 -7.484375 C 17.597656 -7.304688 17.578125 -7.09375 17.546875 -6.84375 L 5.6875 -6.84375 C 5.882812 -5.78125 6.304688 -4.972656 6.953125 -4.421875 C 7.597656 -3.867188 8.382812 -3.59375 9.3125 -3.59375 C 10.144531 -3.59375 10.785156 -3.75 11.234375 -4.0625 C 11.679688 -4.382812 11.992188 -4.78125 12.171875 -5.25 L 17.296875 -5.25 C 17.117188 -4.53125 16.8125 -3.828125 16.375 -3.140625 C 15.9375 -2.460938 15.378906 -1.847656 14.703125 -1.296875 C 14.023438 -0.742188 13.238281 -0.304688 12.34375 0.015625 C 11.457031 0.347656 10.476562 0.515625 9.40625 0.515625 C 8.144531 0.515625 6.992188 0.289062 5.953125 -0.15625 C 4.921875 -0.601562 4.023438 -1.21875 3.265625 -2 C 2.515625 -2.78125 1.9375 -3.6875 1.53125 -4.71875 C 1.125 -5.757812 0.921875 -6.863281 0.921875 -8.03125 C 0.921875 -9.195312 1.125 -10.296875 1.53125 -11.328125 C 1.9375 -12.367188 2.515625 -13.28125 3.265625 -14.0625 C 4.023438 -14.851562 4.921875 -15.46875 5.953125 -15.90625 C 6.992188 -16.351562 8.144531 -16.578125 9.40625 -16.578125 C 10.664062 -16.578125 11.796875 -16.351562 12.796875 -15.90625 C 13.804688 -15.46875 14.671875 -14.859375 15.390625 -14.078125 C 16.117188 -13.304688 16.675781 -12.410156 17.0625 -11.390625 C 17.445312 -10.378906 17.640625 -9.300781 17.640625 -8.15625 Z M 5.875 -10.0625 L 12.75 -10.0625 C 12.695312 -10.5625 12.515625 -11.003906 12.203125 -11.390625 C 11.890625 -11.785156 11.488281 -12.09375 11 -12.3125 C 10.519531 -12.539062 9.992188 -12.65625 9.421875 -12.65625 C 8.929688 -12.65625 8.453125 -12.566406 7.984375 -12.390625 C 7.515625 -12.222656 7.09375 -11.945312 6.71875 -11.5625 C 6.351562 -11.1875 6.070312 -10.6875 5.875 -10.0625 Z M 5.875 -10.0625 "/></g></g></g><g fill="#ffffff" fill-opacity="1"><g transform="translate(282.368595, 198.451451)"><g><path d="M 5.96875 0 L 0.1875 0 L 7.890625 -11.078125 L 0.953125 -21.09375 L 6.71875 -21.09375 L 10.96875 -14.5 L 15.21875 -21.09375 L 20.984375 -21.09375 L 14.03125 -11.078125 L 21.765625 0 L 15.96875 0 L 10.96875 -7.6875 Z M 5.96875 0 "/></g></g></g><g transform="matrix(1, 0, 0, 1, 168, 211)"><g clip-path="url(#9fd46339ff)"><g clip-path="url(#912cd37036)"><g fill="#ffffff" fill-opacity="1"><g transform="translate(0.445863, 4.284778)"><g><path d="M 2.03125 0.0625 C 1.832031 0.0625 1.640625 0.0351562 1.453125 -0.015625 C 1.265625 -0.078125 1.09375 -0.164062 0.9375 -0.28125 C 0.789062 -0.394531 0.660156 -0.523438 0.546875 -0.671875 C 0.441406 -0.828125 0.359375 -0.992188 0.296875 -1.171875 C 0.234375 -1.359375 0.203125 -1.550781 0.203125 -1.75 C 0.203125 -1.957031 0.234375 -2.148438 0.296875 -2.328125 C 0.359375 -2.515625 0.441406 -2.679688 0.546875 -2.828125 C 0.660156 -2.984375 0.789062 -3.117188 0.9375 -3.234375 C 1.09375 -3.347656 1.265625 -3.429688 1.453125 -3.484375 C 1.640625 -3.546875 1.832031 -3.578125 2.03125 -3.578125 C 2.21875 -3.578125 2.398438 -3.550781 2.578125 -3.5 C 2.753906 -3.445312 2.914062 -3.367188 3.0625 -3.265625 C 3.21875 -3.160156 3.347656 -3.03125 3.453125 -2.875 C 3.554688 -2.71875 3.632812 -2.53125 3.6875 -2.3125 L 3.21875 -2.3125 C 3.164062 -2.5 3.082031 -2.65625 2.96875 -2.78125 C 2.851562 -2.90625 2.710938 -3 2.546875 -3.0625 C 2.390625 -3.132812 2.21875 -3.171875 2.03125 -3.171875 C 1.832031 -3.171875 1.648438 -3.132812 1.484375 -3.0625 C 1.328125 -2.988281 1.1875 -2.890625 1.0625 -2.765625 C 0.9375 -2.640625 0.835938 -2.488281 0.765625 -2.3125 C 0.703125 -2.144531 0.671875 -1.957031 0.671875 -1.75 C 0.671875 -1.550781 0.703125 -1.363281 0.765625 -1.1875 C 0.835938 -1.019531 0.9375 -0.875 1.0625 -0.75 C 1.1875 -0.625 1.328125 -0.523438 1.484375 -0.453125 C 1.648438 -0.390625 1.832031 -0.359375 2.03125 -0.359375 C 2.21875 -0.359375 2.390625 -0.390625 2.546875 -0.453125 C 2.703125 -0.515625 2.835938 -0.609375 2.953125 -0.734375 C 3.078125 -0.859375 3.164062 -1.015625 3.21875 -1.203125 L 3.6875 -1.203125 C 3.632812 -0.984375 3.554688 -0.796875 3.453125 -0.640625 C 3.347656 -0.484375 3.21875 -0.351562 3.0625 -0.25 C 2.914062 -0.144531 2.753906 -0.0664062 2.578125 -0.015625 C 2.398438 0.0351562 2.21875 0.0625 2.03125 0.0625 Z M 2.03125 0.0625 "/></g></g></g></g><g clip-path="url(#bd752e6878)"><g fill="#ffffff" fill-opacity="1"><g transform="translate(6.333677, 4.284778)"><g><path d="M 2.078125 0.0625 C 1.867188 0.0625 1.671875 0.0351562 1.484375 -0.015625 C 1.296875 -0.078125 1.125 -0.164062 0.96875 -0.28125 C 0.820312 -0.394531 0.6875 -0.523438 0.5625 -0.671875 C 0.445312 -0.828125 0.359375 -0.992188 0.296875 -1.171875 C 0.234375 -1.359375 0.203125 -1.550781 0.203125 -1.75 C 0.203125 -1.957031 0.234375 -2.148438 0.296875 -2.328125 C 0.359375 -2.515625 0.445312 -2.679688 0.5625 -2.828125 C 0.6875 -2.984375 0.820312 -3.117188 0.96875 -3.234375 C 1.125 -3.347656 1.296875 -3.429688 1.484375 -3.484375 C 1.671875 -3.546875 1.867188 -3.578125 2.078125 -3.578125 C 2.285156 -3.578125 2.484375 -3.546875 2.671875 -3.484375 C 2.859375 -3.429688 3.03125 -3.347656 3.1875 -3.234375 C 3.34375 -3.117188 3.476562 -2.984375 3.59375 -2.828125 C 3.707031 -2.679688 3.796875 -2.515625 3.859375 -2.328125 C 3.921875 -2.148438 3.953125 -1.957031 3.953125 -1.75 C 3.953125 -1.550781 3.921875 -1.359375 3.859375 -1.171875 C 3.796875 -0.992188 3.707031 -0.828125 3.59375 -0.671875 C 3.476562 -0.523438 3.34375 -0.394531 3.1875 -0.28125 C 3.03125 -0.164062 2.859375 -0.078125 2.671875 -0.015625 C 2.484375 0.0351562 2.285156 0.0625 2.078125 0.0625 Z M 2.078125 -0.359375 C 2.273438 -0.359375 2.457031 -0.390625 2.625 -0.453125 C 2.800781 -0.523438 2.953125 -0.625 3.078125 -0.75 C 3.210938 -0.882812 3.316406 -1.035156 3.390625 -1.203125 C 3.460938 -1.367188 3.5 -1.550781 3.5 -1.75 C 3.5 -1.957031 3.460938 -2.144531 3.390625 -2.3125 C 3.316406 -2.476562 3.210938 -2.625 3.078125 -2.75 C 2.953125 -2.882812 2.800781 -2.988281 2.625 -3.0625 C 2.457031 -3.132812 2.273438 -3.171875 2.078125 -3.171875 C 1.878906 -3.171875 1.695312 -3.132812 1.53125 -3.0625 C 1.363281 -2.988281 1.210938 -2.882812 1.078125 -2.75 C 0.953125 -2.625 0.851562 -2.476562 0.78125 -2.3125 C 0.707031 -2.144531 0.671875 -1.957031 0.671875 -1.75 C 0.671875 -1.550781 0.707031 -1.367188 0.78125 -1.203125 C 0.851562 -1.035156 0.953125 -0.882812 1.078125 -0.75 C 1.210938 -0.625 1.363281 -0.523438 1.53125 -0.453125 C 1.695312 -0.390625 1.878906 -0.359375 2.078125 -0.359375 Z M 2.078125 -0.359375 "/></g></g></g></g><g clip-path="url(#cd7718d750)"><g fill="#ffffff" fill-opacity="1"><g transform="translate(12.497178, 4.284778)"><g><path d="M 3.03125 -0.765625 L 3.03125 -3.5 L 3.484375 -3.5 L 3.484375 0 L 3.09375 0 L 0.9375 -2.734375 L 0.9375 0 L 0.484375 0 L 0.484375 -3.5 L 0.859375 -3.5 L 3.015625 -0.765625 Z M 3.03125 -0.765625 "/></g></g></g></g><g clip-path="url(#2e7408e55d)"><g fill="#ffffff" fill-opacity="1"><g transform="translate(18.449405, 4.284778)"><g><path d="M 1.6875 0 L 1.234375 0 L 1.234375 -3.09375 L 0.125 -3.09375 L 0.125 -3.5 L 2.796875 -3.5 L 2.796875 -3.09375 L 1.6875 -3.09375 Z M 1.6875 0 "/></g></g></g></g><g clip-path="url(#566925aa6c)"><g fill="#ffffff" fill-opacity="1"><g transform="translate(23.378758, 4.284778)"><g><path d="M 0.9375 0 L 0.484375 0 L 0.484375 -3.5 L 1.96875 -3.5 C 2.132812 -3.5 2.285156 -3.472656 2.421875 -3.421875 C 2.566406 -3.367188 2.691406 -3.296875 2.796875 -3.203125 C 2.898438 -3.109375 2.976562 -2.992188 3.03125 -2.859375 C 3.09375 -2.722656 3.125 -2.570312 3.125 -2.40625 C 3.125 -2.226562 3.09375 -2.070312 3.03125 -1.9375 C 2.96875 -1.800781 2.878906 -1.6875 2.765625 -1.59375 C 2.648438 -1.5 2.515625 -1.429688 2.359375 -1.390625 L 3.203125 0 L 2.6875 0 L 1.90625 -1.328125 C 1.882812 -1.316406 1.863281 -1.3125 1.84375 -1.3125 C 1.820312 -1.3125 1.804688 -1.3125 1.796875 -1.3125 L 0.9375 -1.3125 Z M 0.9375 -3.09375 L 0.9375 -1.703125 L 1.953125 -1.703125 C 2.085938 -1.703125 2.207031 -1.726562 2.3125 -1.78125 C 2.425781 -1.84375 2.515625 -1.925781 2.578125 -2.03125 C 2.640625 -2.144531 2.671875 -2.269531 2.671875 -2.40625 C 2.671875 -2.539062 2.640625 -2.660156 2.578125 -2.765625 C 2.515625 -2.867188 2.425781 -2.945312 2.3125 -3 C 2.207031 -3.0625 2.085938 -3.09375 1.953125 -3.09375 Z M 0.9375 -3.09375 "/></g></g></g></g><g clip-path="url(#af91f9f746)"><g fill="#ffffff" fill-opacity="1"><g transform="translate(28.743541, 4.284778)"><g><path d="M 2.078125 0.0625 C 1.867188 0.0625 1.671875 0.0351562 1.484375 -0.015625 C 1.296875 -0.078125 1.125 -0.164062 0.96875 -0.28125 C 0.820312 -0.394531 0.6875 -0.523438 0.5625 -0.671875 C 0.445312 -0.828125 0.359375 -0.992188 0.296875 -1.171875 C 0.234375 -1.359375 0.203125 -1.550781 0.203125 -1.75 C 0.203125 -1.957031 0.234375 -2.148438 0.296875 -2.328125 C 0.359375 -2.515625 0.445312 -2.679688 0.5625 -2.828125 C 0.6875 -2.984375 0.820312 -3.117188 0.96875 -3.234375 C 1.125 -3.347656 1.296875 -3.429688 1.484375 -3.484375 C 1.671875 -3.546875 1.867188 -3.578125 2.078125 -3.578125 C 2.285156 -3.578125 2.484375 -3.546875 2.671875 -3.484375 C 2.859375 -3.429688 3.03125 -3.347656 3.1875 -3.234375 C 3.34375 -3.117188 3.476562 -2.984375 3.59375 -2.828125 C 3.707031 -2.679688 3.796875 -2.515625 3.859375 -2.328125 C 3.921875 -2.148438 3.953125 -1.957031 3.953125 -1.75 C 3.953125 -1.550781 3.921875 -1.359375 3.859375 -1.171875 C 3.796875 -0.992188 3.707031 -0.828125 3.59375 -0.671875 C 3.476562 -0.523438 3.34375 -0.394531 3.1875 -0.28125 C 3.03125 -0.164062 2.859375 -0.078125 2.671875 -0.015625 C 2.484375 0.0351562 2.285156 0.0625 2.078125 0.0625 Z M 2.078125 -0.359375 C 2.273438 -0.359375 2.457031 -0.390625 2.625 -0.453125 C 2.800781 -0.523438 2.953125 -0.625 3.078125 -0.75 C 3.210938 -0.882812 3.316406 -1.035156 3.390625 -1.203125 C 3.460938 -1.367188 3.5 -1.550781 3.5 -1.75 C 3.5 -1.957031 3.460938 -2.144531 3.390625 -2.3125 C 3.316406 -2.476562 3.210938 -2.625 3.078125 -2.75 C 2.953125 -2.882812 2.800781 -2.988281 2.625 -3.0625 C 2.457031 -3.132812 2.273438 -3.171875 2.078125 -3.171875 C 1.878906 -3.171875 1.695312 -3.132812 1.53125 -3.0625 C 1.363281 -2.988281 1.210938 -2.882812 1.078125 -2.75 C 0.953125 -2.625 0.851562 -2.476562 0.78125 -2.3125 C 0.707031 -2.144531 0.671875 -1.957031 0.671875 -1.75 C 0.671875 -1.550781 0.707031 -1.367188 0.78125 -1.203125 C 0.851562 -1.035156 0.953125 -0.882812 1.078125 -0.75 C 1.210938 -0.625 1.363281 -0.523438 1.53125 -0.453125 C 1.695312 -0.390625 1.878906 -0.359375 2.078125 -0.359375 Z M 2.078125 -0.359375 "/></g></g></g></g><g clip-path="url(#63179cafd9)"><g fill="#ffffff" fill-opacity="1"><g transform="translate(34.907042, 4.284778)"><g><path d="M 2.640625 0 L 0.484375 0 L 0.484375 -3.5 L 0.9375 -3.5 L 0.9375 -0.40625 L 2.640625 -0.40625 Z M 2.640625 0 "/></g></g></g></g><g clip-path="url(#b24b313fd9)"><g fill="#ffffff" fill-opacity="1"><g transform="translate(39.645733, 4.284778)"><g><path d="M 2.828125 0 L 0.484375 0 L 0.484375 -3.5 L 2.8125 -3.5 L 2.8125 -3.09375 L 0.9375 -3.09375 L 0.9375 -1.984375 L 2.5625 -1.984375 L 2.5625 -1.59375 L 0.9375 -1.59375 L 0.9375 -0.40625 L 2.828125 -0.40625 Z M 2.828125 0 "/></g></g></g></g><g fill="#ffffff" fill-opacity="1"><g transform="translate(44.660111, 4.284778)"><g/></g></g><g clip-path="url(#193c6c0ff7)"><g fill="#ffffff" fill-opacity="1"><g transform="translate(47.963686, 4.284778)"><g><path d="M 0.9375 0 L 0.484375 0 L 0.484375 -3.5 L 2.8125 -3.5 L 2.8125 -3.09375 L 0.9375 -3.09375 L 0.9375 -1.859375 L 2.5625 -1.859375 L 2.5625 -1.46875 L 0.9375 -1.46875 Z M 0.9375 0 "/></g></g></g></g><g clip-path="url(#02aecca5b9)"><g fill="#ffffff" fill-opacity="1"><g transform="translate(52.926534, 4.284778)"><g><path d="M 0.9375 0 L 0.484375 0 L 0.484375 -3.5 L 0.9375 -3.5 Z M 0.9375 0 "/></g></g></g></g><g clip-path="url(#74e9f9cb21)"><g fill="#ffffff" fill-opacity="1"><g transform="translate(56.335746, 4.284778)"><g><path d="M 3.03125 -0.765625 L 3.03125 -3.5 L 3.484375 -3.5 L 3.484375 0 L 3.09375 0 L 0.9375 -2.734375 L 0.9375 0 L 0.484375 0 L 0.484375 -3.5 L 0.859375 -3.5 L 3.015625 -0.765625 Z M 3.03125 -0.765625 "/></g></g></g></g><g clip-path="url(#6c27040ed6)"><g fill="#ffffff" fill-opacity="1"><g transform="translate(62.287973, 4.284778)"><g><path d="M 3.4375 0 L 2.953125 0 L 2.625 -0.796875 L 0.84375 -0.796875 L 0.515625 0 L 0.03125 0 L 1.515625 -3.5 L 1.953125 -3.5 Z M 1.71875 -2.859375 L 1.015625 -1.1875 L 2.453125 -1.1875 L 1.75 -2.859375 L 1.734375 -2.921875 Z M 1.71875 -2.859375 "/></g></g></g></g><g clip-path="url(#54e11987ec)"><g fill="#ffffff" fill-opacity="1"><g transform="translate(67.758393, 4.284778)"><g><path d="M 3.03125 -0.765625 L 3.03125 -3.5 L 3.484375 -3.5 L 3.484375 0 L 3.09375 0 L 0.9375 -2.734375 L 0.9375 0 L 0.484375 0 L 0.484375 -3.5 L 0.859375 -3.5 L 3.015625 -0.765625 Z M 3.03125 -0.765625 "/></g></g></g></g><g clip-path="url(#93626aa41f)"><g fill="#ffffff" fill-opacity="1"><g transform="translate(73.71062, 4.284778)"><g><path d="M 2.03125 0.0625 C 1.832031 0.0625 1.640625 0.0351562 1.453125 -0.015625 C 1.265625 -0.078125 1.09375 -0.164062 0.9375 -0.28125 C 0.789062 -0.394531 0.660156 -0.523438 0.546875 -0.671875 C 0.441406 -0.828125 0.359375 -0.992188 0.296875 -1.171875 C 0.234375 -1.359375 0.203125 -1.550781 0.203125 -1.75 C 0.203125 -1.957031 0.234375 -2.148438 0.296875 -2.328125 C 0.359375 -2.515625 0.441406 -2.679688 0.546875 -2.828125 C 0.660156 -2.984375 0.789062 -3.117188 0.9375 -3.234375 C 1.09375 -3.347656 1.265625 -3.429688 1.453125 -3.484375 C 1.640625 -3.546875 1.832031 -3.578125 2.03125 -3.578125 C 2.21875 -3.578125 2.398438 -3.550781 2.578125 -3.5 C 2.753906 -3.445312 2.914062 -3.367188 3.0625 -3.265625 C 3.21875 -3.160156 3.347656 -3.03125 3.453125 -2.875 C 3.554688 -2.71875 3.632812 -2.53125 3.6875 -2.3125 L 3.21875 -2.3125 C 3.164062 -2.5 3.082031 -2.65625 2.96875 -2.78125 C 2.851562 -2.90625 2.710938 -3 2.546875 -3.0625 C 2.390625 -3.132812 2.21875 -3.171875 2.03125 -3.171875 C 1.832031 -3.171875 1.648438 -3.132812 1.484375 -3.0625 C 1.328125 -2.988281 1.1875 -2.890625 1.0625 -2.765625 C 0.9375 -2.640625 0.835938 -2.488281 0.765625 -2.3125 C 0.703125 -2.144531 0.671875 -1.957031 0.671875 -1.75 C 0.671875 -1.550781 0.703125 -1.363281 0.765625 -1.1875 C 0.835938 -1.019531 0.9375 -0.875 1.0625 -0.75 C 1.1875 -0.625 1.328125 -0.523438 1.484375 -0.453125 C 1.648438 -0.390625 1.832031 -0.359375 2.03125 -0.359375 C 2.21875 -0.359375 2.390625 -0.390625 2.546875 -0.453125 C 2.703125 -0.515625 2.835938 -0.609375 2.953125 -0.734375 C 3.078125 -0.859375 3.164062 -1.015625 3.21875 -1.203125 L 3.6875 -1.203125 C 3.632812 -0.984375 3.554688 -0.796875 3.453125 -0.640625 C 3.347656 -0.484375 3.21875 -0.351562 3.0625 -0.25 C 2.914062 -0.144531 2.753906 -0.0664062 2.578125 -0.015625 C 2.398438 0.0351562 2.21875 0.0625 2.03125 0.0625 Z M 2.03125 0.0625 "/></g></g></g></g><g clip-path="url(#a61d0e9575)"><g fill="#ffffff" fill-opacity="1"><g transform="translate(79.598435, 4.284778)"><g><path d="M 2.828125 0 L 0.484375 0 L 0.484375 -3.5 L 2.8125 -3.5 L 2.8125 -3.09375 L 0.9375 -3.09375 L 0.9375 -1.984375 L 2.5625 -1.984375 L 2.5625 -1.59375 L 0.9375 -1.59375 L 0.9375 -0.40625 L 2.828125 -0.40625 Z M 2.828125 0 "/></g></g></g></g><g clip-path="url(#2c9e5bf29b)"><g fill="#ffffff" fill-opacity="1"><g transform="translate(84.612812, 4.284778)"><g><path d="M 0.9375 0 L 0.484375 0 L 0.484375 -3.5 L 0.9375 -3.5 Z M 0.9375 0 "/></g></g></g></g><g clip-path="url(#4b15ff5c2a)"><g fill="#ffffff" fill-opacity="1"><g transform="translate(88.022025, 4.284778)"><g><path d="M 0.9375 0 L 0.484375 0 L 0.484375 -3.5 L 1.96875 -3.5 C 2.132812 -3.5 2.285156 -3.472656 2.421875 -3.421875 C 2.566406 -3.367188 2.691406 -3.296875 2.796875 -3.203125 C 2.898438 -3.109375 2.976562 -2.992188 3.03125 -2.859375 C 3.09375 -2.722656 3.125 -2.570312 3.125 -2.40625 C 3.125 -2.226562 3.09375 -2.070312 3.03125 -1.9375 C 2.96875 -1.800781 2.878906 -1.6875 2.765625 -1.59375 C 2.648438 -1.5 2.515625 -1.429688 2.359375 -1.390625 L 3.203125 0 L 2.6875 0 L 1.90625 -1.328125 C 1.882812 -1.316406 1.863281 -1.3125 1.84375 -1.3125 C 1.820312 -1.3125 1.804688 -1.3125 1.796875 -1.3125 L 0.9375 -1.3125 Z M 0.9375 -3.09375 L 0.9375 -1.703125 L 1.953125 -1.703125 C 2.085938 -1.703125 2.207031 -1.726562 2.3125 -1.78125 C 2.425781 -1.84375 2.515625 -1.925781 2.578125 -2.03125 C 2.640625 -2.144531 2.671875 -2.269531 2.671875 -2.40625 C 2.671875 -2.539062 2.640625 -2.660156 2.578125 -2.765625 C 2.515625 -2.867188 2.425781 -2.945312 2.3125 -3 C 2.207031 -3.0625 2.085938 -3.09375 1.953125 -3.09375 Z M 0.9375 -3.09375 "/></g></g></g></g><g clip-path="url(#c74437040d)"><g fill="#ffffff" fill-opacity="1"><g transform="translate(93.386808, 4.284778)"><g><path d="M 2.078125 0.0625 C 1.867188 0.0625 1.671875 0.0351562 1.484375 -0.015625 C 1.296875 -0.078125 1.125 -0.164062 0.96875 -0.28125 C 0.820312 -0.394531 0.6875 -0.523438 0.5625 -0.671875 C 0.445312 -0.828125 0.359375 -0.992188 0.296875 -1.171875 C 0.234375 -1.359375 0.203125 -1.550781 0.203125 -1.75 C 0.203125 -1.957031 0.234375 -2.148438 0.296875 -2.328125 C 0.359375 -2.515625 0.445312 -2.679688 0.5625 -2.828125 C 0.6875 -2.984375 0.820312 -3.117188 0.96875 -3.234375 C 1.125 -3.347656 1.296875 -3.429688 1.484375 -3.484375 C 1.671875 -3.546875 1.867188 -3.578125 2.078125 -3.578125 C 2.285156 -3.578125 2.484375 -3.546875 2.671875 -3.484375 C 2.859375 -3.429688 3.03125 -3.347656 3.1875 -3.234375 C 3.34375 -3.117188 3.476562 -2.984375 3.59375 -2.828125 C 3.707031 -2.679688 3.796875 -2.515625 3.859375 -2.328125 C 3.921875 -2.148438 3.953125 -1.957031 3.953125 -1.75 C 3.953125 -1.550781 3.921875 -1.359375 3.859375 -1.171875 C 3.796875 -0.992188 3.707031 -0.828125 3.59375 -0.671875 C 3.476562 -0.523438 3.34375 -0.394531 3.1875 -0.28125 C 3.03125 -0.164062 2.859375 -0.078125 2.671875 -0.015625 C 2.484375 0.0351562 2.285156 0.0625 2.078125 0.0625 Z M 2.078125 -0.359375 C 2.273438 -0.359375 2.457031 -0.390625 2.625 -0.453125 C 2.800781 -0.523438 2.953125 -0.625 3.078125 -0.75 C 3.210938 -0.882812 3.316406 -1.035156 3.390625 -1.203125 C 3.460938 -1.367188 3.5 -1.550781 3.5 -1.75 C 3.5 -1.957031 3.460938 -2.144531 3.390625 -2.3125 C 3.316406 -2.476562 3.210938 -2.625 3.078125 -2.75 C 2.953125 -2.882812 2.800781 -2.988281 2.625 -3.0625 C 2.457031 -3.132812 2.273438 -3.171875 2.078125 -3.171875 C 1.878906 -3.171875 1.695312 -3.132812 1.53125 -3.0625 C 1.363281 -2.988281 1.210938 -2.882812 1.078125 -2.75 C 0.953125 -2.625 0.851562 -2.476562 0.78125 -2.3125 C 0.707031 -2.144531 0.671875 -1.957031 0.671875 -1.75 C 0.671875 -1.550781 0.707031 -1.367188 0.78125 -1.203125 C 0.851562 -1.035156 0.953125 -0.882812 1.078125 -0.75 C 1.210938 -0.625 1.363281 -0.523438 1.53125 -0.453125 C 1.695312 -0.390625 1.878906 -0.359375 2.078125 -0.359375 Z M 2.078125 -0.359375 "/></g></g></g></g></g></g></svg>