<svg xmlns="http://www.w3.org/2000/svg" xmlns:xlink="http://www.w3.org/1999/xlink" width="500" zoomAndPan="magnify" viewBox="0 0 375 374.999991" height="500" preserveAspectRatio="xMidYMid meet" version="1.0"><defs><g/><clipPath id="7af0efbdd5"><path d="M 157.023438 183 L 217.773438 183 L 217.773438 186 L 157.023438 186 Z M 157.023438 183 " clip-rule="nonzero"/></clipPath><clipPath id="f2f47d9b4f"><path d="M 170 116.339844 L 205 116.339844 L 205 152 L 170 152 Z M 170 116.339844 " clip-rule="nonzero"/></clipPath><clipPath id="556b29cb16"><path d="M 169.710938 120.167969 L 205.289062 120.167969 L 205.289062 155.746094 L 169.710938 155.746094 Z M 169.710938 120.167969 " clip-rule="nonzero"/></clipPath><clipPath id="02bd5f912d"><path d="M 187.5 120.167969 C 177.675781 120.167969 169.710938 128.132812 169.710938 137.957031 C 169.710938 147.78125 177.675781 155.746094 187.5 155.746094 C 197.324219 155.746094 205.289062 147.78125 205.289062 137.957031 C 205.289062 128.132812 197.324219 120.167969 187.5 120.167969 Z M 187.5 120.167969 " clip-rule="nonzero"/></clipPath><clipPath id="8afd4e3ea8"><path d="M 0.710938 0.167969 L 36.289062 0.167969 L 36.289062 35.746094 L 0.710938 35.746094 Z M 0.710938 0.167969 " clip-rule="nonzero"/></clipPath><clipPath id="f4fba6a1d0"><path d="M 18.5 0.167969 C 8.675781 0.167969 0.710938 8.132812 0.710938 17.957031 C 0.710938 27.78125 8.675781 35.746094 18.5 35.746094 C 28.324219 35.746094 36.289062 27.78125 36.289062 17.957031 C 36.289062 8.132812 28.324219 0.167969 18.5 0.167969 Z M 18.5 0.167969 " clip-rule="nonzero"/></clipPath><clipPath id="1fda482e59"><rect x="0" width="37" y="0" height="36"/></clipPath><clipPath id="b456a161c6"><path d="M 169.710938 115.589844 L 205.289062 115.589844 L 205.289062 151.171875 L 169.710938 151.171875 Z M 169.710938 115.589844 " clip-rule="nonzero"/></clipPath><clipPath id="8dc5e4eb77"><path d="M 187.5 115.589844 C 177.675781 115.589844 169.710938 123.554688 169.710938 133.378906 C 169.710938 143.207031 177.675781 151.171875 187.5 151.171875 C 197.324219 151.171875 205.289062 143.207031 205.289062 133.378906 C 205.289062 123.554688 197.324219 115.589844 187.5 115.589844 Z M 187.5 115.589844 " clip-rule="nonzero"/></clipPath><clipPath id="24d17d4750"><path d="M 0.710938 0.589844 L 36.289062 0.589844 L 36.289062 36.171875 L 0.710938 36.171875 Z M 0.710938 0.589844 " clip-rule="nonzero"/></clipPath><clipPath id="c8538c105a"><path d="M 18.5 0.589844 C 8.675781 0.589844 0.710938 8.554688 0.710938 18.378906 C 0.710938 28.207031 8.675781 36.171875 18.5 36.171875 C 28.324219 36.171875 36.289062 28.207031 36.289062 18.378906 C 36.289062 8.554688 28.324219 0.589844 18.5 0.589844 Z M 18.5 0.589844 " clip-rule="nonzero"/></clipPath><clipPath id="e5a7646603"><rect x="0" width="37" y="0" height="37"/></clipPath><clipPath id="e45352d61b"><path d="M 180.042969 120.828125 L 195 120.828125 L 195 146.328125 L 180.042969 146.328125 Z M 180.042969 120.828125 " clip-rule="nonzero"/></clipPath><clipPath id="1e57e1f12e"><path d="M 0.28125 0.320312 L 5 0.320312 L 5 5 L 0.28125 5 Z M 0.28125 0.320312 " clip-rule="nonzero"/></clipPath><clipPath id="f3985233e4"><path d="M 6 0.320312 L 11 0.320312 L 11 5 L 6 5 Z M 6 0.320312 " clip-rule="nonzero"/></clipPath><clipPath id="68c9a44370"><path d="M 12 0.320312 L 16 0.320312 L 16 5 L 12 5 Z M 12 0.320312 " clip-rule="nonzero"/></clipPath><clipPath id="16e1419084"><path d="M 18 0.320312 L 22 0.320312 L 22 5 L 18 5 Z M 18 0.320312 " clip-rule="nonzero"/></clipPath><clipPath id="89036bb672"><path d="M 23 0.320312 L 27 0.320312 L 27 5 L 23 5 Z M 23 0.320312 " clip-rule="nonzero"/></clipPath><clipPath id="f24ddb58cc"><path d="M 28 0.320312 L 33 0.320312 L 33 5 L 28 5 Z M 28 0.320312 " clip-rule="nonzero"/></clipPath><clipPath id="9827459945"><path d="M 35 0.320312 L 38 0.320312 L 38 5 L 35 5 Z M 35 0.320312 " clip-rule="nonzero"/></clipPath><clipPath id="cee5e0e509"><path d="M 40 0.320312 L 43 0.320312 L 43 5 L 40 5 Z M 40 0.320312 " clip-rule="nonzero"/></clipPath><clipPath id="645d571461"><path d="M 48 0.320312 L 51 0.320312 L 51 5 L 48 5 Z M 48 0.320312 " clip-rule="nonzero"/></clipPath><clipPath id="4501d3f818"><path d="M 53 0.320312 L 54 0.320312 L 54 5 L 53 5 Z M 53 0.320312 " clip-rule="nonzero"/></clipPath><clipPath id="346332834c"><path d="M 56 0.320312 L 60 0.320312 L 60 5 L 56 5 Z M 56 0.320312 " clip-rule="nonzero"/></clipPath><clipPath id="ef2408c5f6"><path d="M 62 0.320312 L 66 0.320312 L 66 5 L 62 5 Z M 62 0.320312 " clip-rule="nonzero"/></clipPath><clipPath id="86114c0aa0"><path d="M 68 0.320312 L 72 0.320312 L 72 5 L 68 5 Z M 68 0.320312 " clip-rule="nonzero"/></clipPath><clipPath id="523c2d0102"><path d="M 73 0.320312 L 78 0.320312 L 78 5 L 73 5 Z M 73 0.320312 " clip-rule="nonzero"/></clipPath><clipPath id="769231b04b"><path d="M 80 0.320312 L 83 0.320312 L 83 5 L 80 5 Z M 80 0.320312 " clip-rule="nonzero"/></clipPath><clipPath id="5d7bfb9d1c"><path d="M 85 0.320312 L 86 0.320312 L 86 5 L 85 5 Z M 85 0.320312 " clip-rule="nonzero"/></clipPath><clipPath id="7e20e02c21"><path d="M 88 0.320312 L 92 0.320312 L 92 5 L 88 5 Z M 88 0.320312 " clip-rule="nonzero"/></clipPath><clipPath id="c8eec3e1ac"><path d="M 93 0.320312 L 98 0.320312 L 98 5 L 93 5 Z M 93 0.320312 " clip-rule="nonzero"/></clipPath><clipPath id="66c411b7d3"><rect x="0" width="100" y="0" height="6"/></clipPath></defs><rect x="-37.5" width="450" fill="#ffffff" y="-37.499999" height="449.999989" fill-opacity="1"/><rect x="-37.5" width="450" fill="#02142c" y="-37.499999" height="449.999989" fill-opacity="1"/><path fill="#c89344" d="M 200.558594 175.113281 C 199.960938 175.113281 199.46875 175.601562 199.46875 176.199219 C 199.46875 176.800781 199.960938 177.289062 200.558594 177.289062 L 209.265625 177.289062 C 209.863281 177.289062 210.355469 176.800781 210.355469 176.199219 C 210.355469 175.601562 209.863281 175.113281 209.265625 175.113281 L 208.175781 175.113281 L 208.175781 162.050781 L 209.265625 162.050781 C 209.863281 162.050781 210.355469 161.5625 210.355469 160.964844 C 210.355469 160.363281 209.863281 159.875 209.265625 159.875 L 200.558594 159.875 C 199.960938 159.875 199.46875 160.363281 199.46875 160.964844 C 199.46875 161.5625 199.960938 162.050781 200.558594 162.050781 L 201.648438 162.050781 L 201.648438 175.113281 Z M 200.558594 175.113281 " fill-opacity="1" fill-rule="nonzero"/><path fill="#c89344" d="M 162.464844 179.464844 C 161.867188 179.464844 161.378906 179.957031 161.378906 180.554688 C 161.378906 181.152344 161.867188 181.644531 162.464844 181.644531 L 212.53125 181.644531 C 213.128906 181.644531 213.621094 181.152344 213.621094 180.554688 C 213.621094 179.957031 213.128906 179.464844 212.53125 179.464844 Z M 162.464844 179.464844 " fill-opacity="1" fill-rule="nonzero"/><g clip-path="url(#7af0efbdd5)"><path fill="#c89344" d="M 157.023438 184.90625 C 157.023438 185.507812 157.511719 185.996094 158.113281 185.996094 L 216.882812 185.996094 C 217.484375 185.996094 217.972656 185.507812 217.972656 184.90625 C 217.972656 184.308594 217.484375 183.820312 216.882812 183.820312 L 158.113281 183.820312 C 157.511719 183.820312 157.023438 184.308594 157.023438 184.90625 Z M 157.023438 184.90625 " fill-opacity="1" fill-rule="nonzero"/></g><path fill="#c89344" d="M 165.730469 175.113281 C 165.132812 175.113281 164.640625 175.601562 164.640625 176.199219 C 164.640625 176.800781 165.132812 177.289062 165.730469 177.289062 L 174.4375 177.289062 C 175.035156 177.289062 175.527344 176.800781 175.527344 176.199219 C 175.527344 175.601562 175.035156 175.113281 174.4375 175.113281 L 173.347656 175.113281 L 173.347656 162.050781 L 174.4375 162.050781 C 175.035156 162.050781 175.527344 161.5625 175.527344 160.964844 C 175.527344 160.363281 175.035156 159.875 174.4375 159.875 L 165.730469 159.875 C 165.132812 159.875 164.640625 160.363281 164.640625 160.964844 C 164.640625 161.5625 165.132812 162.050781 165.730469 162.050781 L 166.820312 162.050781 L 166.820312 175.113281 Z M 165.730469 175.113281 " fill-opacity="1" fill-rule="nonzero"/><path fill="#c89344" d="M 183.144531 175.113281 C 182.546875 175.113281 182.054688 175.601562 182.054688 176.199219 C 182.054688 176.800781 182.546875 177.289062 183.144531 177.289062 L 191.851562 177.289062 C 192.449219 177.289062 192.941406 176.800781 192.941406 176.199219 C 192.941406 175.601562 192.449219 175.113281 191.851562 175.113281 L 190.761719 175.113281 L 190.761719 162.050781 L 191.851562 162.050781 C 192.449219 162.050781 192.941406 161.5625 192.941406 160.964844 C 192.941406 160.363281 192.449219 159.875 191.851562 159.875 L 183.144531 159.875 C 182.546875 159.875 182.054688 160.363281 182.054688 160.964844 C 182.054688 161.5625 182.546875 162.050781 183.144531 162.050781 L 184.234375 162.050781 L 184.234375 175.113281 Z M 183.144531 175.113281 " fill-opacity="1" fill-rule="nonzero"/><path fill="#c89344" d="M 200.613281 148.339844 L 208.667969 155.574219 L 166.492188 155.574219 L 174.382812 148.339844 C 173.839844 147.847656 173.347656 147.359375 172.914062 146.816406 L 162.792969 156.066406 C 161.8125 156.9375 161.484375 157.699219 162.628906 157.699219 L 212.097656 157.699219 C 213.238281 157.699219 213.347656 156.992188 212.367188 156.121094 L 202.082031 146.816406 C 201.648438 147.359375 201.15625 147.847656 200.613281 148.339844 Z M 200.613281 148.339844 " fill-opacity="1" fill-rule="nonzero"/><path fill="#c89344" d="M 190.21875 138.761719 C 191.144531 137.5625 190.546875 135.984375 189.238281 135.496094 C 189.023438 135.441406 188.804688 135.332031 188.640625 135.277344 L 188.640625 139.632812 C 189.238281 139.523438 189.839844 139.25 190.21875 138.761719 Z M 190.21875 138.761719 " fill-opacity="1" fill-rule="nonzero"/><path fill="#c89344" d="M 184.777344 131.25 C 185.160156 131.847656 185.757812 132.175781 186.410156 132.339844 L 186.410156 128.53125 C 186.355469 128.53125 186.300781 128.53125 186.246094 128.585938 C 185.210938 128.910156 184.125 130.109375 184.777344 131.25 Z M 184.777344 131.25 " fill-opacity="1" fill-rule="nonzero"/><g clip-path="url(#f2f47d9b4f)"><path fill="#c89344" d="M 170.085938 133.753906 C 170.085938 140.339844 173.730469 146 179.0625 148.992188 L 176.613281 148.992188 C 176.015625 148.992188 175.527344 149.480469 175.527344 150.078125 C 175.527344 150.679688 176.015625 151.167969 176.613281 151.167969 L 198.382812 151.167969 C 198.980469 151.167969 199.46875 150.679688 199.46875 150.078125 C 199.46875 149.480469 198.980469 148.992188 198.382812 148.992188 L 195.933594 148.992188 C 201.265625 146 204.914062 140.339844 204.914062 133.753906 C 204.914062 124.121094 197.128906 116.339844 187.5 116.339844 C 177.867188 116.339844 170.085938 124.121094 170.085938 133.753906 Z M 188.585938 124.011719 L 188.585938 126.40625 C 189.347656 126.515625 190.054688 126.789062 190.710938 127.167969 C 191.253906 127.496094 191.742188 127.984375 192.125 128.585938 C 192.777344 129.507812 192.996094 130.324219 192.886719 131.085938 C 192.832031 131.632812 192.234375 132.011719 191.742188 131.847656 C 191.253906 131.742188 190.925781 131.195312 190.710938 130.761719 C 190.492188 130.164062 190.109375 129.5625 189.621094 129.183594 C 189.292969 128.964844 188.96875 128.800781 188.585938 128.691406 L 188.585938 132.9375 C 189.023438 133.046875 189.457031 133.210938 189.894531 133.320312 C 191.960938 133.917969 193.15625 135.820312 192.886719 138.054688 C 192.722656 139.195312 192.015625 140.175781 191.089844 140.828125 C 190.328125 141.320312 189.457031 141.644531 188.585938 141.753906 L 188.585938 143.550781 C 188.585938 144.203125 188.097656 144.691406 187.5 144.691406 C 186.898438 144.691406 186.410156 144.203125 186.410156 143.550781 L 186.410156 141.753906 C 184.886719 141.535156 183.6875 140.828125 182.871094 139.578125 C 182.65625 139.25 182.492188 138.925781 182.328125 138.597656 C 182.109375 138.109375 181.949219 137.347656 182.21875 136.800781 C 182.546875 136.09375 183.472656 136.203125 183.90625 136.746094 C 184.289062 137.238281 184.449219 137.890625 184.832031 138.433594 C 185.210938 138.925781 185.8125 139.304688 186.464844 139.523438 L 186.464844 134.789062 C 185.320312 134.460938 184.125 134.136719 183.253906 133.15625 C 182.4375 132.230469 182.328125 130.871094 182.546875 129.671875 C 182.925781 127.984375 184.34375 126.953125 185.867188 126.515625 C 186.027344 126.460938 186.246094 126.40625 186.410156 126.40625 L 186.410156 124.066406 C 186.410156 123.414062 186.898438 122.925781 187.5 122.925781 C 188.097656 122.871094 188.585938 123.359375 188.585938 124.011719 Z M 188.585938 124.011719 " fill-opacity="1" fill-rule="nonzero"/></g><g clip-path="url(#556b29cb16)"><g clip-path="url(#02bd5f912d)"><g transform="matrix(1, 0, 0, 1, 169, 120)"><g clip-path="url(#1fda482e59)"><g clip-path="url(#8afd4e3ea8)"><g clip-path="url(#f4fba6a1d0)"><path fill="#02142c" d="M 0.710938 0.167969 L 36.289062 0.167969 L 36.289062 35.746094 L 0.710938 35.746094 Z M 0.710938 0.167969 " fill-opacity="1" fill-rule="nonzero"/></g></g></g></g></g></g><g clip-path="url(#b456a161c6)"><g clip-path="url(#8dc5e4eb77)"><g transform="matrix(1, 0, 0, 1, 169, 115)"><g clip-path="url(#e5a7646603)"><g clip-path="url(#24d17d4750)"><g clip-path="url(#c8538c105a)"><path fill="#c89344" d="M 0.710938 0.589844 L 36.289062 0.589844 L 36.289062 36.171875 L 0.710938 36.171875 Z M 0.710938 0.589844 " fill-opacity="1" fill-rule="nonzero"/></g></g></g></g></g></g><g clip-path="url(#e45352d61b)"><path fill="#02142c" d="M 193.1875 133.949219 C 192.496094 133.476562 191.511719 133.101562 190.265625 132.832031 C 190.242188 132.828125 190.222656 132.804688 190.222656 132.78125 C 190.222656 132.78125 190.222656 126.953125 190.222656 126.945312 C 190.222656 126.90625 190.269531 126.878906 190.300781 126.898438 C 190.683594 127.105469 191.007812 127.371094 191.273438 127.683594 C 191.566406 128.035156 191.785156 128.484375 191.941406 129.0625 C 192.003906 129.289062 192.148438 129.488281 192.367188 129.640625 C 192.894531 129.996094 193.703125 129.898438 194.09375 129.433594 C 194.277344 129.214844 194.351562 128.933594 194.300781 128.671875 C 194.0625 127.324219 193.425781 126.328125 192.355469 125.628906 C 191.722656 125.214844 191.019531 124.894531 190.261719 124.671875 C 190.238281 124.664062 190.222656 124.644531 190.222656 124.621094 L 190.222656 121.789062 C 190.238281 121.429688 190.105469 121.144531 189.847656 120.984375 C 189.609375 120.84375 189.304688 120.84375 189.066406 120.984375 C 188.808594 121.140625 188.675781 121.425781 188.691406 121.773438 C 188.691406 121.773438 188.691406 124.296875 188.691406 124.296875 C 188.691406 124.332031 188.664062 124.347656 188.632812 124.351562 C 187.855469 124.273438 187.167969 124.261719 186.40625 124.316406 C 186.378906 124.316406 186.347656 124.292969 186.347656 124.261719 L 186.347656 121.789062 C 186.363281 121.429688 186.230469 121.144531 185.976562 120.984375 C 185.738281 120.84375 185.429688 120.84375 185.195312 120.984375 C 184.9375 121.140625 184.800781 121.425781 184.816406 121.773438 L 184.816406 124.53125 C 184.816406 124.554688 184.804688 124.574219 184.777344 124.582031 C 183.832031 124.835938 183.027344 125.25 182.386719 125.8125 C 181.226562 126.824219 180.640625 128.140625 180.640625 129.722656 C 180.640625 131.199219 181.222656 132.277344 182.417969 133.023438 C 182.929688 133.34375 183.726562 133.644531 184.785156 133.917969 C 184.804688 133.921875 184.816406 133.941406 184.816406 133.964844 L 184.816406 140.523438 C 184.816406 140.5625 184.78125 140.589844 184.746094 140.570312 C 184.042969 140.273438 183.484375 139.839844 183.082031 139.273438 C 182.765625 138.832031 182.550781 138.308594 182.421875 137.671875 C 182.324219 137.183594 181.835938 136.828125 181.257812 136.828125 C 180.886719 136.828125 180.53125 136.980469 180.3125 137.238281 C 180.128906 137.449219 180.050781 137.714844 180.09375 137.980469 C 180.304688 139.332031 180.929688 140.453125 181.945312 141.316406 C 182.71875 141.976562 183.671875 142.445312 184.773438 142.707031 C 184.789062 142.710938 184.816406 142.71875 184.816406 142.792969 L 184.816406 145.460938 C 184.800781 145.824219 184.9375 146.109375 185.195312 146.265625 C 185.3125 146.335938 185.449219 146.371094 185.582031 146.371094 C 185.71875 146.371094 185.859375 146.335938 185.976562 146.261719 C 186.226562 146.109375 186.363281 145.824219 186.347656 145.476562 L 186.347656 143.023438 C 186.363281 142.984375 186.367188 142.976562 186.40625 142.964844 C 187.105469 143.019531 187.886719 143.015625 188.628906 142.953125 C 188.65625 142.949219 188.675781 142.964844 188.691406 143.015625 L 188.691406 145.460938 C 188.675781 145.828125 188.808594 146.109375 189.066406 146.261719 C 189.300781 146.40625 189.609375 146.410156 189.851562 146.265625 C 190.109375 146.109375 190.242188 145.828125 190.226562 145.476562 L 190.222656 142.742188 C 190.21875 142.71875 190.238281 142.691406 190.265625 142.683594 C 191.128906 142.476562 191.953125 142.15625 192.707031 141.734375 C 194.222656 140.886719 194.957031 139.515625 194.957031 137.542969 C 194.957031 135.953125 194.378906 134.777344 193.1875 133.949219 Z M 184.816406 131.46875 C 184.816406 131.484375 184.808594 131.5 184.792969 131.515625 C 184.785156 131.519531 184.761719 131.523438 184.746094 131.519531 C 184.496094 131.433594 184.304688 131.355469 184.15625 131.28125 C 183.351562 130.859375 182.960938 130.210938 182.960938 129.308594 C 182.960938 128.507812 183.304688 127.789062 183.976562 127.179688 C 184.1875 126.988281 184.445312 126.824219 184.742188 126.691406 C 184.761719 126.683594 184.78125 126.6875 184.796875 126.695312 C 184.808594 126.703125 184.816406 126.722656 184.816406 126.742188 Z M 188.691406 140.960938 C 188.691406 140.988281 188.667969 141.015625 188.644531 141.015625 C 187.992188 141.09375 187.167969 141.09375 186.394531 141 C 186.371094 140.996094 186.347656 140.972656 186.347656 140.945312 C 186.347656 140.945312 186.347656 134.363281 186.347656 134.347656 C 186.347656 134.3125 186.382812 134.289062 186.414062 134.292969 C 186.414062 134.292969 188.605469 134.757812 188.652344 134.773438 C 188.675781 134.78125 188.691406 134.800781 188.691406 134.824219 Z M 188.691406 132.425781 C 188.691406 132.445312 188.679688 132.460938 188.671875 132.46875 C 188.660156 132.480469 188.640625 132.480469 188.628906 132.480469 L 187.597656 132.257812 C 187.25 132.179688 186.496094 132.007812 186.425781 131.988281 C 186.394531 131.980469 186.347656 131.964844 186.347656 131.925781 L 186.347656 126.355469 C 186.347656 126.324219 186.375 126.304688 186.394531 126.300781 C 186.664062 126.277344 186.953125 126.265625 187.257812 126.265625 C 187.765625 126.265625 188.21875 126.300781 188.644531 126.371094 C 188.671875 126.375 188.691406 126.398438 188.691406 126.421875 Z M 190.292969 140.660156 C 190.261719 140.671875 190.222656 140.648438 190.222656 140.613281 C 190.222656 140.613281 190.222656 135.273438 190.222656 135.273438 C 190.222656 135.234375 190.261719 135.207031 190.296875 135.222656 C 190.828125 135.40625 191.25 135.597656 191.582031 135.808594 C 192.238281 136.230469 192.574219 136.941406 192.574219 137.929688 C 192.574219 139.234375 191.804688 140.152344 190.292969 140.660156 Z M 190.292969 140.660156 " fill-opacity="1" fill-rule="nonzero"/></g><g fill="#ffffff" fill-opacity="1"><g transform="translate(99.298805, 213.573149)"><g><path d="M 7.078125 0 L 2.15625 0 L 2.15625 -21.09375 L 6.484375 -21.09375 L 13.046875 -12.015625 L 13.046875 -12.03125 L 19.703125 -21.09375 L 23.984375 -21.09375 L 23.984375 0 L 19.078125 0 L 19.078125 -13.265625 L 13.671875 -5.671875 L 12.421875 -5.671875 L 7.078125 -13.3125 Z M 7.078125 0 "/></g></g></g><g fill="#ffffff" fill-opacity="1"><g transform="translate(123.902788, 213.573149)"><g><path d="M 3.484375 5.484375 L 0.71875 5.484375 L 0.71875 1.578125 L 3.390625 1.578125 C 4.140625 1.578125 4.695312 1.421875 5.0625 1.109375 C 5.4375 0.804688 5.75 0.304688 6 -0.390625 L 6.21875 -1 L 0.265625 -16.046875 L 5.296875 -16.046875 L 8.328125 -7.859375 L 8.78125 -5.96875 L 9.21875 -7.859375 L 12.1875 -16.03125 L 17.28125 -16.0625 L 11.109375 -0.28125 C 10.609375 0.976562 10.101562 1.988281 9.59375 2.75 C 9.082031 3.519531 8.523438 4.101562 7.921875 4.5 C 7.328125 4.894531 6.664062 5.15625 5.9375 5.28125 C 5.21875 5.414062 4.398438 5.484375 3.484375 5.484375 Z M 3.484375 5.484375 "/></g></g></g><g fill="#ffffff" fill-opacity="1"><g transform="translate(139.745462, 213.573149)"><g><path d="M 7.078125 0 L 2.15625 0 L 2.15625 -21.09375 L 17.03125 -21.09375 L 17.03125 -16.71875 L 7.078125 -16.71875 L 7.078125 -11.875 L 15.625 -11.875 L 15.625 -7.765625 L 7.078125 -7.765625 Z M 7.078125 0 "/></g></g></g><g fill="#ffffff" fill-opacity="1"><g transform="translate(156.130871, 213.573149)"><g><path d="M 4.21875 -17.96875 C 3.625 -17.96875 3.117188 -18.082031 2.703125 -18.3125 C 2.285156 -18.539062 1.960938 -18.847656 1.734375 -19.234375 C 1.515625 -19.628906 1.40625 -20.0625 1.40625 -20.53125 C 1.40625 -21.007812 1.515625 -21.441406 1.734375 -21.828125 C 1.953125 -22.210938 2.269531 -22.523438 2.6875 -22.765625 C 3.113281 -23.003906 3.628906 -23.125 4.234375 -23.125 C 4.859375 -23.125 5.378906 -23.003906 5.796875 -22.765625 C 6.222656 -22.523438 6.546875 -22.210938 6.765625 -21.828125 C 6.984375 -21.441406 7.09375 -21.007812 7.09375 -20.53125 C 7.09375 -19.8125 6.84375 -19.203125 6.34375 -18.703125 C 5.851562 -18.210938 5.144531 -17.96875 4.21875 -17.96875 Z M 6.625 0 L 1.84375 0 L 1.84375 -16.0625 L 6.625 -16.0625 Z M 6.625 0 "/></g></g></g><g fill="#ffffff" fill-opacity="1"><g transform="translate(163.08818, 213.573149)"><g><path d="M 6.625 0 L 1.84375 0 L 1.84375 -16.0625 L 6.40625 -16.0625 L 6.40625 -14.125 C 6.71875 -14.613281 7.125 -15.039062 7.625 -15.40625 C 8.132812 -15.769531 8.710938 -16.054688 9.359375 -16.265625 C 10.015625 -16.472656 10.710938 -16.578125 11.453125 -16.578125 C 12.910156 -16.578125 14.113281 -16.257812 15.0625 -15.625 C 16.007812 -14.988281 16.710938 -14.078125 17.171875 -12.890625 C 17.640625 -11.703125 17.875 -10.28125 17.875 -8.625 L 17.875 0 L 13.09375 0 L 13.09375 -8.515625 C 13.09375 -9.398438 12.960938 -10.113281 12.703125 -10.65625 C 12.453125 -11.207031 12.101562 -11.601562 11.65625 -11.84375 C 11.21875 -12.082031 10.695312 -12.203125 10.09375 -12.203125 C 9.5 -12.203125 8.929688 -12.050781 8.390625 -11.75 C 7.859375 -11.445312 7.429688 -10.984375 7.109375 -10.359375 C 6.785156 -9.734375 6.625 -8.9375 6.625 -7.96875 Z M 6.625 0 "/></g></g></g><g fill="#ffffff" fill-opacity="1"><g transform="translate(181.225852, 213.573149)"><g><path d="M 8.3125 0.53125 C 7.238281 0.53125 6.25 0.304688 5.34375 -0.140625 C 4.4375 -0.585938 3.648438 -1.203125 2.984375 -1.984375 C 2.328125 -2.773438 1.816406 -3.6875 1.453125 -4.71875 C 1.097656 -5.75 0.921875 -6.851562 0.921875 -8.03125 C 0.921875 -9.195312 1.101562 -10.296875 1.46875 -11.328125 C 1.832031 -12.367188 2.34375 -13.28125 3 -14.0625 C 3.664062 -14.851562 4.445312 -15.46875 5.34375 -15.90625 C 6.25 -16.351562 7.226562 -16.578125 8.28125 -16.578125 C 9.46875 -16.578125 10.519531 -16.351562 11.4375 -15.90625 C 12.351562 -15.46875 13.054688 -14.832031 13.546875 -14 L 13.546875 -16.0625 L 18.0625 -16.0625 L 18.0625 0 L 13.53125 0 L 13.53125 -2.03125 C 13.039062 -1.21875 12.335938 -0.585938 11.421875 -0.140625 C 10.515625 0.304688 9.476562 0.53125 8.3125 0.53125 Z M 9.484375 -3.875 C 10.210938 -3.875 10.863281 -4.054688 11.4375 -4.421875 C 12.019531 -4.796875 12.484375 -5.296875 12.828125 -5.921875 C 13.171875 -6.546875 13.34375 -7.25 13.34375 -8.03125 C 13.34375 -8.8125 13.171875 -9.515625 12.828125 -10.140625 C 12.484375 -10.765625 12.019531 -11.257812 11.4375 -11.625 C 10.851562 -12 10.207031 -12.1875 9.5 -12.1875 C 8.789062 -12.1875 8.144531 -12.019531 7.5625 -11.6875 C 6.976562 -11.363281 6.507812 -10.890625 6.15625 -10.265625 C 5.8125 -9.648438 5.640625 -8.90625 5.640625 -8.03125 C 5.640625 -7.125 5.816406 -6.363281 6.171875 -5.75 C 6.535156 -5.132812 7.007812 -4.664062 7.59375 -4.34375 C 8.175781 -4.03125 8.804688 -3.875 9.484375 -3.875 Z M 9.484375 -3.875 "/></g></g></g><g fill="#ffffff" fill-opacity="1"><g transform="translate(199.611631, 213.573149)"><g><path d="M 6.625 0 L 1.84375 0 L 1.84375 -16.0625 L 6.40625 -16.0625 L 6.40625 -14.125 C 6.71875 -14.613281 7.125 -15.039062 7.625 -15.40625 C 8.132812 -15.769531 8.710938 -16.054688 9.359375 -16.265625 C 10.015625 -16.472656 10.710938 -16.578125 11.453125 -16.578125 C 12.910156 -16.578125 14.113281 -16.257812 15.0625 -15.625 C 16.007812 -14.988281 16.710938 -14.078125 17.171875 -12.890625 C 17.640625 -11.703125 17.875 -10.28125 17.875 -8.625 L 17.875 0 L 13.09375 0 L 13.09375 -8.515625 C 13.09375 -9.398438 12.960938 -10.113281 12.703125 -10.65625 C 12.453125 -11.207031 12.101562 -11.601562 11.65625 -11.84375 C 11.21875 -12.082031 10.695312 -12.203125 10.09375 -12.203125 C 9.5 -12.203125 8.929688 -12.050781 8.390625 -11.75 C 7.859375 -11.445312 7.429688 -10.984375 7.109375 -10.359375 C 6.785156 -9.734375 6.625 -8.9375 6.625 -7.96875 Z M 6.625 0 "/></g></g></g><g fill="#ffffff" fill-opacity="1"><g transform="translate(217.749302, 213.573149)"><g><path d="M 9.328125 0.515625 C 8.078125 0.515625 6.9375 0.289062 5.90625 -0.15625 C 4.882812 -0.601562 4 -1.21875 3.25 -2 C 2.507812 -2.78125 1.9375 -3.6875 1.53125 -4.71875 C 1.125 -5.757812 0.921875 -6.863281 0.921875 -8.03125 C 0.921875 -9.195312 1.125 -10.296875 1.53125 -11.328125 C 1.9375 -12.359375 2.507812 -13.265625 3.25 -14.046875 C 4 -14.835938 4.882812 -15.457031 5.90625 -15.90625 C 6.9375 -16.351562 8.078125 -16.578125 9.328125 -16.578125 C 10.429688 -16.578125 11.441406 -16.410156 12.359375 -16.078125 C 13.273438 -15.753906 14.085938 -15.289062 14.796875 -14.6875 C 15.503906 -14.082031 16.09375 -13.382812 16.5625 -12.59375 C 17.03125 -11.800781 17.367188 -10.9375 17.578125 -10 L 12.734375 -10 C 12.441406 -10.769531 11.988281 -11.320312 11.375 -11.65625 C 10.769531 -11.988281 10.09375 -12.15625 9.34375 -12.15625 C 8.707031 -12.15625 8.109375 -12 7.546875 -11.6875 C 6.984375 -11.375 6.523438 -10.910156 6.171875 -10.296875 C 5.816406 -9.679688 5.640625 -8.925781 5.640625 -8.03125 C 5.640625 -7.144531 5.816406 -6.390625 6.171875 -5.765625 C 6.523438 -5.148438 6.984375 -4.679688 7.546875 -4.359375 C 8.109375 -4.035156 8.707031 -3.875 9.34375 -3.875 C 10.09375 -3.875 10.769531 -4.054688 11.375 -4.421875 C 11.988281 -4.796875 12.441406 -5.429688 12.734375 -6.328125 L 17.578125 -6.328125 C 17.390625 -5.335938 17.0625 -4.425781 16.59375 -3.59375 C 16.125 -2.757812 15.53125 -2.035156 14.8125 -1.421875 C 14.101562 -0.804688 13.285156 -0.332031 12.359375 0 C 11.441406 0.34375 10.429688 0.515625 9.328125 0.515625 Z M 9.328125 0.515625 "/></g></g></g><g fill="#ffffff" fill-opacity="1"><g transform="translate(234.475859, 213.573149)"><g><path d="M 17.640625 -8.15625 C 17.640625 -7.894531 17.628906 -7.671875 17.609375 -7.484375 C 17.597656 -7.304688 17.578125 -7.09375 17.546875 -6.84375 L 5.6875 -6.84375 C 5.882812 -5.78125 6.304688 -4.972656 6.953125 -4.421875 C 7.597656 -3.867188 8.382812 -3.59375 9.3125 -3.59375 C 10.144531 -3.59375 10.785156 -3.75 11.234375 -4.0625 C 11.679688 -4.382812 11.992188 -4.78125 12.171875 -5.25 L 17.296875 -5.25 C 17.117188 -4.53125 16.8125 -3.828125 16.375 -3.140625 C 15.9375 -2.460938 15.378906 -1.847656 14.703125 -1.296875 C 14.023438 -0.742188 13.238281 -0.304688 12.34375 0.015625 C 11.457031 0.347656 10.476562 0.515625 9.40625 0.515625 C 8.144531 0.515625 6.992188 0.289062 5.953125 -0.15625 C 4.921875 -0.601562 4.023438 -1.21875 3.265625 -2 C 2.515625 -2.78125 1.9375 -3.6875 1.53125 -4.71875 C 1.125 -5.757812 0.921875 -6.863281 0.921875 -8.03125 C 0.921875 -9.195312 1.125 -10.296875 1.53125 -11.328125 C 1.9375 -12.367188 2.515625 -13.28125 3.265625 -14.0625 C 4.023438 -14.851562 4.921875 -15.46875 5.953125 -15.90625 C 6.992188 -16.351562 8.144531 -16.578125 9.40625 -16.578125 C 10.664062 -16.578125 11.796875 -16.351562 12.796875 -15.90625 C 13.804688 -15.46875 14.671875 -14.859375 15.390625 -14.078125 C 16.117188 -13.304688 16.675781 -12.410156 17.0625 -11.390625 C 17.445312 -10.378906 17.640625 -9.300781 17.640625 -8.15625 Z M 5.875 -10.0625 L 12.75 -10.0625 C 12.695312 -10.5625 12.515625 -11.003906 12.203125 -11.390625 C 11.890625 -11.785156 11.488281 -12.09375 11 -12.3125 C 10.519531 -12.539062 9.992188 -12.65625 9.421875 -12.65625 C 8.929688 -12.65625 8.453125 -12.566406 7.984375 -12.390625 C 7.515625 -12.222656 7.09375 -11.945312 6.71875 -11.5625 C 6.351562 -11.1875 6.070312 -10.6875 5.875 -10.0625 Z M 5.875 -10.0625 "/></g></g></g><g fill="#ffffff" fill-opacity="1"><g transform="translate(251.326471, 213.573149)"><g><path d="M 5.96875 0 L 0.1875 0 L 7.890625 -11.078125 L 0.953125 -21.09375 L 6.71875 -21.09375 L 10.96875 -14.5 L 15.21875 -21.09375 L 20.984375 -21.09375 L 14.03125 -11.078125 L 21.765625 0 L 15.96875 0 L 10.96875 -7.6875 Z M 5.96875 0 "/></g></g></g><g transform="matrix(1, 0, 0, 1, 137, 226)"><g clip-path="url(#66c411b7d3)"><g clip-path="url(#1e57e1f12e)"><g fill="#ffffff" fill-opacity="1"><g transform="translate(0.403731, 4.406476)"><g><path d="M 2.03125 0.0625 C 1.832031 0.0625 1.640625 0.0351562 1.453125 -0.015625 C 1.265625 -0.078125 1.09375 -0.164062 0.9375 -0.28125 C 0.789062 -0.394531 0.660156 -0.523438 0.546875 -0.671875 C 0.441406 -0.828125 0.359375 -0.992188 0.296875 -1.171875 C 0.234375 -1.359375 0.203125 -1.550781 0.203125 -1.75 C 0.203125 -1.957031 0.234375 -2.148438 0.296875 -2.328125 C 0.359375 -2.515625 0.441406 -2.679688 0.546875 -2.828125 C 0.660156 -2.984375 0.789062 -3.117188 0.9375 -3.234375 C 1.09375 -3.347656 1.265625 -3.429688 1.453125 -3.484375 C 1.640625 -3.546875 1.832031 -3.578125 2.03125 -3.578125 C 2.21875 -3.578125 2.398438 -3.550781 2.578125 -3.5 C 2.753906 -3.445312 2.914062 -3.367188 3.0625 -3.265625 C 3.21875 -3.160156 3.347656 -3.03125 3.453125 -2.875 C 3.554688 -2.71875 3.632812 -2.53125 3.6875 -2.3125 L 3.21875 -2.3125 C 3.164062 -2.5 3.082031 -2.65625 2.96875 -2.78125 C 2.851562 -2.90625 2.710938 -3 2.546875 -3.0625 C 2.390625 -3.132812 2.21875 -3.171875 2.03125 -3.171875 C 1.832031 -3.171875 1.648438 -3.132812 1.484375 -3.0625 C 1.328125 -2.988281 1.1875 -2.890625 1.0625 -2.765625 C 0.9375 -2.640625 0.835938 -2.488281 0.765625 -2.3125 C 0.703125 -2.144531 0.671875 -1.957031 0.671875 -1.75 C 0.671875 -1.550781 0.703125 -1.363281 0.765625 -1.1875 C 0.835938 -1.019531 0.9375 -0.875 1.0625 -0.75 C 1.1875 -0.625 1.328125 -0.523438 1.484375 -0.453125 C 1.648438 -0.390625 1.832031 -0.359375 2.03125 -0.359375 C 2.21875 -0.359375 2.390625 -0.390625 2.546875 -0.453125 C 2.703125 -0.515625 2.835938 -0.609375 2.953125 -0.734375 C 3.078125 -0.859375 3.164062 -1.015625 3.21875 -1.203125 L 3.6875 -1.203125 C 3.632812 -0.984375 3.554688 -0.796875 3.453125 -0.640625 C 3.347656 -0.484375 3.21875 -0.351562 3.0625 -0.25 C 2.914062 -0.144531 2.753906 -0.0664062 2.578125 -0.015625 C 2.398438 0.0351562 2.21875 0.0625 2.03125 0.0625 Z M 2.03125 0.0625 "/></g></g></g></g><g clip-path="url(#f3985233e4)"><g fill="#ffffff" fill-opacity="1"><g transform="translate(6.291545, 4.406476)"><g><path d="M 2.078125 0.0625 C 1.867188 0.0625 1.671875 0.0351562 1.484375 -0.015625 C 1.296875 -0.078125 1.125 -0.164062 0.96875 -0.28125 C 0.820312 -0.394531 0.6875 -0.523438 0.5625 -0.671875 C 0.445312 -0.828125 0.359375 -0.992188 0.296875 -1.171875 C 0.234375 -1.359375 0.203125 -1.550781 0.203125 -1.75 C 0.203125 -1.957031 0.234375 -2.148438 0.296875 -2.328125 C 0.359375 -2.515625 0.445312 -2.679688 0.5625 -2.828125 C 0.6875 -2.984375 0.820312 -3.117188 0.96875 -3.234375 C 1.125 -3.347656 1.296875 -3.429688 1.484375 -3.484375 C 1.671875 -3.546875 1.867188 -3.578125 2.078125 -3.578125 C 2.285156 -3.578125 2.484375 -3.546875 2.671875 -3.484375 C 2.859375 -3.429688 3.03125 -3.347656 3.1875 -3.234375 C 3.34375 -3.117188 3.476562 -2.984375 3.59375 -2.828125 C 3.707031 -2.679688 3.796875 -2.515625 3.859375 -2.328125 C 3.921875 -2.148438 3.953125 -1.957031 3.953125 -1.75 C 3.953125 -1.550781 3.921875 -1.359375 3.859375 -1.171875 C 3.796875 -0.992188 3.707031 -0.828125 3.59375 -0.671875 C 3.476562 -0.523438 3.34375 -0.394531 3.1875 -0.28125 C 3.03125 -0.164062 2.859375 -0.078125 2.671875 -0.015625 C 2.484375 0.0351562 2.285156 0.0625 2.078125 0.0625 Z M 2.078125 -0.359375 C 2.273438 -0.359375 2.457031 -0.390625 2.625 -0.453125 C 2.800781 -0.523438 2.953125 -0.625 3.078125 -0.75 C 3.210938 -0.882812 3.316406 -1.035156 3.390625 -1.203125 C 3.460938 -1.367188 3.5 -1.550781 3.5 -1.75 C 3.5 -1.957031 3.460938 -2.144531 3.390625 -2.3125 C 3.316406 -2.476562 3.210938 -2.625 3.078125 -2.75 C 2.953125 -2.882812 2.800781 -2.988281 2.625 -3.0625 C 2.457031 -3.132812 2.273438 -3.171875 2.078125 -3.171875 C 1.878906 -3.171875 1.695312 -3.132812 1.53125 -3.0625 C 1.363281 -2.988281 1.210938 -2.882812 1.078125 -2.75 C 0.953125 -2.625 0.851562 -2.476562 0.78125 -2.3125 C 0.707031 -2.144531 0.671875 -1.957031 0.671875 -1.75 C 0.671875 -1.550781 0.707031 -1.367188 0.78125 -1.203125 C 0.851562 -1.035156 0.953125 -0.882812 1.078125 -0.75 C 1.210938 -0.625 1.363281 -0.523438 1.53125 -0.453125 C 1.695312 -0.390625 1.878906 -0.359375 2.078125 -0.359375 Z M 2.078125 -0.359375 "/></g></g></g></g><g clip-path="url(#68c9a44370)"><g fill="#ffffff" fill-opacity="1"><g transform="translate(12.455046, 4.406476)"><g><path d="M 3.03125 -0.765625 L 3.03125 -3.5 L 3.484375 -3.5 L 3.484375 0 L 3.09375 0 L 0.9375 -2.734375 L 0.9375 0 L 0.484375 0 L 0.484375 -3.5 L 0.859375 -3.5 L 3.015625 -0.765625 Z M 3.03125 -0.765625 "/></g></g></g></g><g clip-path="url(#16e1419084)"><g fill="#ffffff" fill-opacity="1"><g transform="translate(18.407274, 4.406476)"><g><path d="M 1.6875 0 L 1.234375 0 L 1.234375 -3.09375 L 0.125 -3.09375 L 0.125 -3.5 L 2.796875 -3.5 L 2.796875 -3.09375 L 1.6875 -3.09375 Z M 1.6875 0 "/></g></g></g></g><g clip-path="url(#89036bb672)"><g fill="#ffffff" fill-opacity="1"><g transform="translate(23.336626, 4.406476)"><g><path d="M 0.9375 0 L 0.484375 0 L 0.484375 -3.5 L 1.96875 -3.5 C 2.132812 -3.5 2.285156 -3.472656 2.421875 -3.421875 C 2.566406 -3.367188 2.691406 -3.296875 2.796875 -3.203125 C 2.898438 -3.109375 2.976562 -2.992188 3.03125 -2.859375 C 3.09375 -2.722656 3.125 -2.570312 3.125 -2.40625 C 3.125 -2.226562 3.09375 -2.070312 3.03125 -1.9375 C 2.96875 -1.800781 2.878906 -1.6875 2.765625 -1.59375 C 2.648438 -1.5 2.515625 -1.429688 2.359375 -1.390625 L 3.203125 0 L 2.6875 0 L 1.90625 -1.328125 C 1.882812 -1.316406 1.863281 -1.3125 1.84375 -1.3125 C 1.820312 -1.3125 1.804688 -1.3125 1.796875 -1.3125 L 0.9375 -1.3125 Z M 0.9375 -3.09375 L 0.9375 -1.703125 L 1.953125 -1.703125 C 2.085938 -1.703125 2.207031 -1.726562 2.3125 -1.78125 C 2.425781 -1.84375 2.515625 -1.925781 2.578125 -2.03125 C 2.640625 -2.144531 2.671875 -2.269531 2.671875 -2.40625 C 2.671875 -2.539062 2.640625 -2.660156 2.578125 -2.765625 C 2.515625 -2.867188 2.425781 -2.945312 2.3125 -3 C 2.207031 -3.0625 2.085938 -3.09375 1.953125 -3.09375 Z M 0.9375 -3.09375 "/></g></g></g></g><g clip-path="url(#f24ddb58cc)"><g fill="#ffffff" fill-opacity="1"><g transform="translate(28.701409, 4.406476)"><g><path d="M 2.078125 0.0625 C 1.867188 0.0625 1.671875 0.0351562 1.484375 -0.015625 C 1.296875 -0.078125 1.125 -0.164062 0.96875 -0.28125 C 0.820312 -0.394531 0.6875 -0.523438 0.5625 -0.671875 C 0.445312 -0.828125 0.359375 -0.992188 0.296875 -1.171875 C 0.234375 -1.359375 0.203125 -1.550781 0.203125 -1.75 C 0.203125 -1.957031 0.234375 -2.148438 0.296875 -2.328125 C 0.359375 -2.515625 0.445312 -2.679688 0.5625 -2.828125 C 0.6875 -2.984375 0.820312 -3.117188 0.96875 -3.234375 C 1.125 -3.347656 1.296875 -3.429688 1.484375 -3.484375 C 1.671875 -3.546875 1.867188 -3.578125 2.078125 -3.578125 C 2.285156 -3.578125 2.484375 -3.546875 2.671875 -3.484375 C 2.859375 -3.429688 3.03125 -3.347656 3.1875 -3.234375 C 3.34375 -3.117188 3.476562 -2.984375 3.59375 -2.828125 C 3.707031 -2.679688 3.796875 -2.515625 3.859375 -2.328125 C 3.921875 -2.148438 3.953125 -1.957031 3.953125 -1.75 C 3.953125 -1.550781 3.921875 -1.359375 3.859375 -1.171875 C 3.796875 -0.992188 3.707031 -0.828125 3.59375 -0.671875 C 3.476562 -0.523438 3.34375 -0.394531 3.1875 -0.28125 C 3.03125 -0.164062 2.859375 -0.078125 2.671875 -0.015625 C 2.484375 0.0351562 2.285156 0.0625 2.078125 0.0625 Z M 2.078125 -0.359375 C 2.273438 -0.359375 2.457031 -0.390625 2.625 -0.453125 C 2.800781 -0.523438 2.953125 -0.625 3.078125 -0.75 C 3.210938 -0.882812 3.316406 -1.035156 3.390625 -1.203125 C 3.460938 -1.367188 3.5 -1.550781 3.5 -1.75 C 3.5 -1.957031 3.460938 -2.144531 3.390625 -2.3125 C 3.316406 -2.476562 3.210938 -2.625 3.078125 -2.75 C 2.953125 -2.882812 2.800781 -2.988281 2.625 -3.0625 C 2.457031 -3.132812 2.273438 -3.171875 2.078125 -3.171875 C 1.878906 -3.171875 1.695312 -3.132812 1.53125 -3.0625 C 1.363281 -2.988281 1.210938 -2.882812 1.078125 -2.75 C 0.953125 -2.625 0.851562 -2.476562 0.78125 -2.3125 C 0.707031 -2.144531 0.671875 -1.957031 0.671875 -1.75 C 0.671875 -1.550781 0.707031 -1.367188 0.78125 -1.203125 C 0.851562 -1.035156 0.953125 -0.882812 1.078125 -0.75 C 1.210938 -0.625 1.363281 -0.523438 1.53125 -0.453125 C 1.695312 -0.390625 1.878906 -0.359375 2.078125 -0.359375 Z M 2.078125 -0.359375 "/></g></g></g></g><g clip-path="url(#9827459945)"><g fill="#ffffff" fill-opacity="1"><g transform="translate(34.86491, 4.406476)"><g><path d="M 2.640625 0 L 0.484375 0 L 0.484375 -3.5 L 0.9375 -3.5 L 0.9375 -0.40625 L 2.640625 -0.40625 Z M 2.640625 0 "/></g></g></g></g><g clip-path="url(#cee5e0e509)"><g fill="#ffffff" fill-opacity="1"><g transform="translate(39.603602, 4.406476)"><g><path d="M 2.828125 0 L 0.484375 0 L 0.484375 -3.5 L 2.8125 -3.5 L 2.8125 -3.09375 L 0.9375 -3.09375 L 0.9375 -1.984375 L 2.5625 -1.984375 L 2.5625 -1.59375 L 0.9375 -1.59375 L 0.9375 -0.40625 L 2.828125 -0.40625 Z M 2.828125 0 "/></g></g></g></g><g fill="#ffffff" fill-opacity="1"><g transform="translate(44.617979, 4.406476)"><g/></g></g><g clip-path="url(#645d571461)"><g fill="#ffffff" fill-opacity="1"><g transform="translate(47.921555, 4.406476)"><g><path d="M 0.9375 0 L 0.484375 0 L 0.484375 -3.5 L 2.8125 -3.5 L 2.8125 -3.09375 L 0.9375 -3.09375 L 0.9375 -1.859375 L 2.5625 -1.859375 L 2.5625 -1.46875 L 0.9375 -1.46875 Z M 0.9375 0 "/></g></g></g></g><g clip-path="url(#4501d3f818)"><g fill="#ffffff" fill-opacity="1"><g transform="translate(52.884402, 4.406476)"><g><path d="M 0.9375 0 L 0.484375 0 L 0.484375 -3.5 L 0.9375 -3.5 Z M 0.9375 0 "/></g></g></g></g><g clip-path="url(#346332834c)"><g fill="#ffffff" fill-opacity="1"><g transform="translate(56.293614, 4.406476)"><g><path d="M 3.03125 -0.765625 L 3.03125 -3.5 L 3.484375 -3.5 L 3.484375 0 L 3.09375 0 L 0.9375 -2.734375 L 0.9375 0 L 0.484375 0 L 0.484375 -3.5 L 0.859375 -3.5 L 3.015625 -0.765625 Z M 3.03125 -0.765625 "/></g></g></g></g><g clip-path="url(#ef2408c5f6)"><g fill="#ffffff" fill-opacity="1"><g transform="translate(62.245841, 4.406476)"><g><path d="M 3.4375 0 L 2.953125 0 L 2.625 -0.796875 L 0.84375 -0.796875 L 0.515625 0 L 0.03125 0 L 1.515625 -3.5 L 1.953125 -3.5 Z M 1.71875 -2.859375 L 1.015625 -1.1875 L 2.453125 -1.1875 L 1.75 -2.859375 L 1.734375 -2.921875 Z M 1.71875 -2.859375 "/></g></g></g></g><g clip-path="url(#86114c0aa0)"><g fill="#ffffff" fill-opacity="1"><g transform="translate(67.716261, 4.406476)"><g><path d="M 3.03125 -0.765625 L 3.03125 -3.5 L 3.484375 -3.5 L 3.484375 0 L 3.09375 0 L 0.9375 -2.734375 L 0.9375 0 L 0.484375 0 L 0.484375 -3.5 L 0.859375 -3.5 L 3.015625 -0.765625 Z M 3.03125 -0.765625 "/></g></g></g></g><g clip-path="url(#523c2d0102)"><g fill="#ffffff" fill-opacity="1"><g transform="translate(73.668488, 4.406476)"><g><path d="M 2.03125 0.0625 C 1.832031 0.0625 1.640625 0.0351562 1.453125 -0.015625 C 1.265625 -0.078125 1.09375 -0.164062 0.9375 -0.28125 C 0.789062 -0.394531 0.660156 -0.523438 0.546875 -0.671875 C 0.441406 -0.828125 0.359375 -0.992188 0.296875 -1.171875 C 0.234375 -1.359375 0.203125 -1.550781 0.203125 -1.75 C 0.203125 -1.957031 0.234375 -2.148438 0.296875 -2.328125 C 0.359375 -2.515625 0.441406 -2.679688 0.546875 -2.828125 C 0.660156 -2.984375 0.789062 -3.117188 0.9375 -3.234375 C 1.09375 -3.347656 1.265625 -3.429688 1.453125 -3.484375 C 1.640625 -3.546875 1.832031 -3.578125 2.03125 -3.578125 C 2.21875 -3.578125 2.398438 -3.550781 2.578125 -3.5 C 2.753906 -3.445312 2.914062 -3.367188 3.0625 -3.265625 C 3.21875 -3.160156 3.347656 -3.03125 3.453125 -2.875 C 3.554688 -2.71875 3.632812 -2.53125 3.6875 -2.3125 L 3.21875 -2.3125 C 3.164062 -2.5 3.082031 -2.65625 2.96875 -2.78125 C 2.851562 -2.90625 2.710938 -3 2.546875 -3.0625 C 2.390625 -3.132812 2.21875 -3.171875 2.03125 -3.171875 C 1.832031 -3.171875 1.648438 -3.132812 1.484375 -3.0625 C 1.328125 -2.988281 1.1875 -2.890625 1.0625 -2.765625 C 0.9375 -2.640625 0.835938 -2.488281 0.765625 -2.3125 C 0.703125 -2.144531 0.671875 -1.957031 0.671875 -1.75 C 0.671875 -1.550781 0.703125 -1.363281 0.765625 -1.1875 C 0.835938 -1.019531 0.9375 -0.875 1.0625 -0.75 C 1.1875 -0.625 1.328125 -0.523438 1.484375 -0.453125 C 1.648438 -0.390625 1.832031 -0.359375 2.03125 -0.359375 C 2.21875 -0.359375 2.390625 -0.390625 2.546875 -0.453125 C 2.703125 -0.515625 2.835938 -0.609375 2.953125 -0.734375 C 3.078125 -0.859375 3.164062 -1.015625 3.21875 -1.203125 L 3.6875 -1.203125 C 3.632812 -0.984375 3.554688 -0.796875 3.453125 -0.640625 C 3.347656 -0.484375 3.21875 -0.351562 3.0625 -0.25 C 2.914062 -0.144531 2.753906 -0.0664062 2.578125 -0.015625 C 2.398438 0.0351562 2.21875 0.0625 2.03125 0.0625 Z M 2.03125 0.0625 "/></g></g></g></g><g clip-path="url(#769231b04b)"><g fill="#ffffff" fill-opacity="1"><g transform="translate(79.556303, 4.406476)"><g><path d="M 2.828125 0 L 0.484375 0 L 0.484375 -3.5 L 2.8125 -3.5 L 2.8125 -3.09375 L 0.9375 -3.09375 L 0.9375 -1.984375 L 2.5625 -1.984375 L 2.5625 -1.59375 L 0.9375 -1.59375 L 0.9375 -0.40625 L 2.828125 -0.40625 Z M 2.828125 0 "/></g></g></g></g><g clip-path="url(#5d7bfb9d1c)"><g fill="#ffffff" fill-opacity="1"><g transform="translate(84.570681, 4.406476)"><g><path d="M 0.9375 0 L 0.484375 0 L 0.484375 -3.5 L 0.9375 -3.5 Z M 0.9375 0 "/></g></g></g></g><g clip-path="url(#7e20e02c21)"><g fill="#ffffff" fill-opacity="1"><g transform="translate(87.979893, 4.406476)"><g><path d="M 0.9375 0 L 0.484375 0 L 0.484375 -3.5 L 1.96875 -3.5 C 2.132812 -3.5 2.285156 -3.472656 2.421875 -3.421875 C 2.566406 -3.367188 2.691406 -3.296875 2.796875 -3.203125 C 2.898438 -3.109375 2.976562 -2.992188 3.03125 -2.859375 C 3.09375 -2.722656 3.125 -2.570312 3.125 -2.40625 C 3.125 -2.226562 3.09375 -2.070312 3.03125 -1.9375 C 2.96875 -1.800781 2.878906 -1.6875 2.765625 -1.59375 C 2.648438 -1.5 2.515625 -1.429688 2.359375 -1.390625 L 3.203125 0 L 2.6875 0 L 1.90625 -1.328125 C 1.882812 -1.316406 1.863281 -1.3125 1.84375 -1.3125 C 1.820312 -1.3125 1.804688 -1.3125 1.796875 -1.3125 L 0.9375 -1.3125 Z M 0.9375 -3.09375 L 0.9375 -1.703125 L 1.953125 -1.703125 C 2.085938 -1.703125 2.207031 -1.726562 2.3125 -1.78125 C 2.425781 -1.84375 2.515625 -1.925781 2.578125 -2.03125 C 2.640625 -2.144531 2.671875 -2.269531 2.671875 -2.40625 C 2.671875 -2.539062 2.640625 -2.660156 2.578125 -2.765625 C 2.515625 -2.867188 2.425781 -2.945312 2.3125 -3 C 2.207031 -3.0625 2.085938 -3.09375 1.953125 -3.09375 Z M 0.9375 -3.09375 "/></g></g></g></g><g clip-path="url(#c8eec3e1ac)"><g fill="#ffffff" fill-opacity="1"><g transform="translate(93.344676, 4.406476)"><g><path d="M 2.078125 0.0625 C 1.867188 0.0625 1.671875 0.0351562 1.484375 -0.015625 C 1.296875 -0.078125 1.125 -0.164062 0.96875 -0.28125 C 0.820312 -0.394531 0.6875 -0.523438 0.5625 -0.671875 C 0.445312 -0.828125 0.359375 -0.992188 0.296875 -1.171875 C 0.234375 -1.359375 0.203125 -1.550781 0.203125 -1.75 C 0.203125 -1.957031 0.234375 -2.148438 0.296875 -2.328125 C 0.359375 -2.515625 0.445312 -2.679688 0.5625 -2.828125 C 0.6875 -2.984375 0.820312 -3.117188 0.96875 -3.234375 C 1.125 -3.347656 1.296875 -3.429688 1.484375 -3.484375 C 1.671875 -3.546875 1.867188 -3.578125 2.078125 -3.578125 C 2.285156 -3.578125 2.484375 -3.546875 2.671875 -3.484375 C 2.859375 -3.429688 3.03125 -3.347656 3.1875 -3.234375 C 3.34375 -3.117188 3.476562 -2.984375 3.59375 -2.828125 C 3.707031 -2.679688 3.796875 -2.515625 3.859375 -2.328125 C 3.921875 -2.148438 3.953125 -1.957031 3.953125 -1.75 C 3.953125 -1.550781 3.921875 -1.359375 3.859375 -1.171875 C 3.796875 -0.992188 3.707031 -0.828125 3.59375 -0.671875 C 3.476562 -0.523438 3.34375 -0.394531 3.1875 -0.28125 C 3.03125 -0.164062 2.859375 -0.078125 2.671875 -0.015625 C 2.484375 0.0351562 2.285156 0.0625 2.078125 0.0625 Z M 2.078125 -0.359375 C 2.273438 -0.359375 2.457031 -0.390625 2.625 -0.453125 C 2.800781 -0.523438 2.953125 -0.625 3.078125 -0.75 C 3.210938 -0.882812 3.316406 -1.035156 3.390625 -1.203125 C 3.460938 -1.367188 3.5 -1.550781 3.5 -1.75 C 3.5 -1.957031 3.460938 -2.144531 3.390625 -2.3125 C 3.316406 -2.476562 3.210938 -2.625 3.078125 -2.75 C 2.953125 -2.882812 2.800781 -2.988281 2.625 -3.0625 C 2.457031 -3.132812 2.273438 -3.171875 2.078125 -3.171875 C 1.878906 -3.171875 1.695312 -3.132812 1.53125 -3.0625 C 1.363281 -2.988281 1.210938 -2.882812 1.078125 -2.75 C 0.953125 -2.625 0.851562 -2.476562 0.78125 -2.3125 C 0.707031 -2.144531 0.671875 -1.957031 0.671875 -1.75 C 0.671875 -1.550781 0.707031 -1.367188 0.78125 -1.203125 C 0.851562 -1.035156 0.953125 -0.882812 1.078125 -0.75 C 1.210938 -0.625 1.363281 -0.523438 1.53125 -0.453125 C 1.695312 -0.390625 1.878906 -0.359375 2.078125 -0.359375 Z M 2.078125 -0.359375 "/></g></g></g></g></g></g></svg>