<svg xmlns="http://www.w3.org/2000/svg" xmlns:xlink="http://www.w3.org/1999/xlink" width="500" zoomAndPan="magnify" viewBox="0 0 375 374.999991" height="500" preserveAspectRatio="xMidYMid meet" version="1.0"><defs><clipPath id="e9981e9f0c"><path d="M 151.320312 226 L 223.320312 226 L 223.320312 229.09375 L 151.320312 229.09375 Z M 151.320312 226 " clip-rule="nonzero"/></clipPath><clipPath id="f889a68508"><path d="M 166 146.59375 L 209 146.59375 L 209 188 L 166 188 Z M 166 146.59375 " clip-rule="nonzero"/></clipPath><clipPath id="843b6ab8bb"><path d="M 166.378906 151.136719 L 208.621094 151.136719 L 208.621094 193.378906 L 166.378906 193.378906 Z M 166.378906 151.136719 " clip-rule="nonzero"/></clipPath><clipPath id="9867b6b4ba"><path d="M 187.5 151.136719 C 175.835938 151.136719 166.378906 160.59375 166.378906 172.257812 C 166.378906 183.921875 175.835938 193.378906 187.5 193.378906 C 199.164062 193.378906 208.621094 183.921875 208.621094 172.257812 C 208.621094 160.59375 199.164062 151.136719 187.5 151.136719 Z M 187.5 151.136719 " clip-rule="nonzero"/></clipPath><clipPath id="86d418fda6"><path d="M 0.378906 0.136719 L 42.621094 0.136719 L 42.621094 42.378906 L 0.378906 42.378906 Z M 0.378906 0.136719 " clip-rule="nonzero"/></clipPath><clipPath id="e78bef75a4"><path d="M 21.5 0.136719 C 9.835938 0.136719 0.378906 9.59375 0.378906 21.257812 C 0.378906 32.921875 9.835938 42.378906 21.5 42.378906 C 33.164062 42.378906 42.621094 32.921875 42.621094 21.257812 C 42.621094 9.59375 33.164062 0.136719 21.5 0.136719 Z M 21.5 0.136719 " clip-rule="nonzero"/></clipPath><clipPath id="68491520d6"><rect x="0" width="43" y="0" height="43"/></clipPath><clipPath id="6cdecb010a"><path d="M 166.378906 145.707031 L 208.621094 145.707031 L 208.621094 187.945312 L 166.378906 187.945312 Z M 166.378906 145.707031 " clip-rule="nonzero"/></clipPath><clipPath id="bf71316427"><path d="M 187.5 145.707031 C 175.835938 145.707031 166.378906 155.160156 166.378906 166.824219 C 166.378906 178.488281 175.835938 187.945312 187.5 187.945312 C 199.164062 187.945312 208.621094 178.488281 208.621094 166.824219 C 208.621094 155.160156 199.164062 145.707031 187.5 145.707031 Z M 187.5 145.707031 " clip-rule="nonzero"/></clipPath><clipPath id="f5547e63b1"><path d="M 0.378906 0.707031 L 42.621094 0.707031 L 42.621094 42.945312 L 0.378906 42.945312 Z M 0.378906 0.707031 " clip-rule="nonzero"/></clipPath><clipPath id="1989b630b2"><path d="M 21.5 0.707031 C 9.835938 0.707031 0.378906 10.160156 0.378906 21.824219 C 0.378906 33.488281 9.835938 42.945312 21.5 42.945312 C 33.164062 42.945312 42.621094 33.488281 42.621094 21.824219 C 42.621094 10.160156 33.164062 0.707031 21.5 0.707031 Z M 21.5 0.707031 " clip-rule="nonzero"/></clipPath><clipPath id="4f7fa8f22d"><rect x="0" width="43" y="0" height="43"/></clipPath><clipPath id="a43f65bf60"><path d="M 178.648438 151.925781 L 196.648438 151.925781 L 196.648438 182.675781 L 178.648438 182.675781 Z M 178.648438 151.925781 " clip-rule="nonzero"/></clipPath></defs><rect x="-37.5" width="450" fill="#ffffff" y="-37.499999" height="449.999989" fill-opacity="1"/><rect x="-37.5" width="450" fill="#02142c" y="-37.499999" height="449.999989" fill-opacity="1"/><path fill="#c89344" d="M 203 216.363281 C 202.289062 216.363281 201.707031 216.945312 201.707031 217.65625 C 201.707031 218.367188 202.289062 218.945312 203 218.945312 L 213.335938 218.945312 C 214.046875 218.945312 214.625 218.367188 214.625 217.65625 C 214.625 216.945312 214.046875 216.363281 213.335938 216.363281 L 212.042969 216.363281 L 212.042969 200.859375 L 213.335938 200.859375 C 214.046875 200.859375 214.625 200.277344 214.625 199.566406 C 214.625 198.855469 214.046875 198.273438 213.335938 198.273438 L 203 198.273438 C 202.289062 198.273438 201.707031 198.855469 201.707031 199.566406 C 201.707031 200.277344 202.289062 200.859375 203 200.859375 L 204.289062 200.859375 L 204.289062 216.363281 Z M 203 216.363281 " fill-opacity="1" fill-rule="nonzero"/><path fill="#c89344" d="M 157.777344 221.53125 C 157.070312 221.53125 156.488281 222.113281 156.488281 222.824219 C 156.488281 223.535156 157.070312 224.113281 157.777344 224.113281 L 217.210938 224.113281 C 217.921875 224.113281 218.503906 223.535156 218.503906 222.824219 C 218.503906 222.113281 217.921875 221.53125 217.210938 221.53125 Z M 157.777344 221.53125 " fill-opacity="1" fill-rule="nonzero"/><g clip-path="url(#e9981e9f0c)"><path fill="#c89344" d="M 151.320312 227.992188 C 151.320312 228.703125 151.902344 229.28125 152.609375 229.28125 L 222.378906 229.28125 C 223.089844 229.28125 223.671875 228.703125 223.671875 227.992188 C 223.671875 227.28125 223.089844 226.699219 222.378906 226.699219 L 152.609375 226.699219 C 151.902344 226.699219 151.320312 227.28125 151.320312 227.992188 Z M 151.320312 227.992188 " fill-opacity="1" fill-rule="nonzero"/></g><path fill="#c89344" d="M 161.65625 216.363281 C 160.945312 216.363281 160.363281 216.945312 160.363281 217.65625 C 160.363281 218.367188 160.945312 218.945312 161.65625 218.945312 L 171.992188 218.945312 C 172.703125 218.945312 173.28125 218.367188 173.28125 217.65625 C 173.28125 216.945312 172.703125 216.363281 171.992188 216.363281 L 170.699219 216.363281 L 170.699219 200.859375 L 171.992188 200.859375 C 172.703125 200.859375 173.28125 200.277344 173.28125 199.566406 C 173.28125 198.855469 172.703125 198.273438 171.992188 198.273438 L 161.65625 198.273438 C 160.945312 198.273438 160.363281 198.855469 160.363281 199.566406 C 160.363281 200.277344 160.945312 200.859375 161.65625 200.859375 L 162.945312 200.859375 L 162.945312 216.363281 Z M 161.65625 216.363281 " fill-opacity="1" fill-rule="nonzero"/><path fill="#c89344" d="M 182.328125 216.363281 C 181.617188 216.363281 181.035156 216.945312 181.035156 217.65625 C 181.035156 218.367188 181.617188 218.945312 182.328125 218.945312 L 192.664062 218.945312 C 193.375 218.945312 193.953125 218.367188 193.953125 217.65625 C 193.953125 216.945312 193.375 216.363281 192.664062 216.363281 L 191.371094 216.363281 L 191.371094 200.859375 L 192.664062 200.859375 C 193.375 200.859375 193.953125 200.277344 193.953125 199.566406 C 193.953125 198.855469 193.375 198.273438 192.664062 198.273438 L 182.328125 198.273438 C 181.617188 198.273438 181.035156 198.855469 181.035156 199.566406 C 181.035156 200.277344 181.617188 200.859375 182.328125 200.859375 L 183.617188 200.859375 L 183.617188 216.363281 Z M 182.328125 216.363281 " fill-opacity="1" fill-rule="nonzero"/><path fill="#c89344" d="M 203.0625 184.582031 L 212.625 193.171875 L 162.558594 193.171875 L 171.925781 184.582031 C 171.28125 184 170.699219 183.417969 170.183594 182.769531 L 158.167969 193.753906 C 157.003906 194.785156 156.617188 195.691406 157.972656 195.691406 L 216.695312 195.691406 C 218.050781 195.691406 218.179688 194.851562 217.015625 193.816406 L 204.808594 182.769531 C 204.289062 183.417969 203.710938 184 203.0625 184.582031 Z M 203.0625 184.582031 " fill-opacity="1" fill-rule="nonzero"/><path fill="#c89344" d="M 190.726562 173.210938 C 191.824219 171.789062 191.113281 169.917969 189.5625 169.335938 C 189.304688 169.269531 189.046875 169.140625 188.851562 169.078125 L 188.851562 174.246094 C 189.5625 174.113281 190.273438 173.792969 190.726562 173.210938 Z M 190.726562 173.210938 " fill-opacity="1" fill-rule="nonzero"/><path fill="#c89344" d="M 184.265625 164.296875 C 184.71875 165.007812 185.425781 165.394531 186.203125 165.585938 L 186.203125 161.066406 C 186.136719 161.066406 186.074219 161.066406 186.007812 161.128906 C 184.78125 161.519531 183.488281 162.9375 184.265625 164.296875 Z M 184.265625 164.296875 " fill-opacity="1" fill-rule="nonzero"/><g clip-path="url(#f889a68508)"><path fill="#c89344" d="M 166.824219 167.265625 C 166.824219 175.085938 171.152344 181.800781 177.480469 185.355469 L 174.574219 185.355469 C 173.863281 185.355469 173.28125 185.9375 173.28125 186.648438 C 173.28125 187.359375 173.863281 187.9375 174.574219 187.9375 L 200.414062 187.9375 C 201.125 187.9375 201.707031 187.359375 201.707031 186.648438 C 201.707031 185.9375 201.125 185.355469 200.414062 185.355469 L 197.507812 185.355469 C 203.839844 181.800781 208.167969 175.085938 208.167969 167.265625 C 208.167969 155.832031 198.929688 146.59375 187.496094 146.59375 C 176.0625 146.59375 166.824219 155.832031 166.824219 167.265625 Z M 188.785156 155.703125 L 188.785156 158.546875 C 189.691406 158.675781 190.53125 159 191.304688 159.449219 C 191.953125 159.839844 192.535156 160.417969 192.984375 161.128906 C 193.761719 162.230469 194.019531 163.199219 193.890625 164.101562 C 193.824219 164.75 193.113281 165.199219 192.535156 165.007812 C 191.953125 164.878906 191.566406 164.230469 191.304688 163.714844 C 191.046875 163.003906 190.59375 162.292969 190.015625 161.839844 C 189.625 161.582031 189.238281 161.390625 188.785156 161.257812 L 188.785156 166.296875 C 189.304688 166.425781 189.820312 166.621094 190.335938 166.75 C 192.792969 167.460938 194.214844 169.722656 193.890625 172.371094 C 193.695312 173.726562 192.855469 174.890625 191.757812 175.664062 C 190.855469 176.246094 189.820312 176.632812 188.785156 176.761719 L 188.785156 178.894531 C 188.785156 179.671875 188.207031 180.253906 187.496094 180.253906 C 186.785156 180.253906 186.203125 179.671875 186.203125 178.894531 L 186.203125 176.761719 C 184.394531 176.503906 182.972656 175.664062 182.003906 174.179688 C 181.746094 173.792969 181.550781 173.40625 181.359375 173.015625 C 181.097656 172.433594 180.90625 171.53125 181.230469 170.886719 C 181.617188 170.046875 182.714844 170.175781 183.230469 170.820312 C 183.683594 171.402344 183.878906 172.175781 184.328125 172.824219 C 184.78125 173.40625 185.492188 173.855469 186.265625 174.113281 L 186.265625 168.496094 C 184.910156 168.105469 183.488281 167.71875 182.457031 166.558594 C 181.488281 165.457031 181.359375 163.84375 181.617188 162.421875 C 182.070312 160.417969 183.75 159.191406 185.558594 158.675781 C 185.75 158.609375 186.007812 158.546875 186.203125 158.546875 L 186.203125 155.769531 C 186.203125 154.992188 186.785156 154.414062 187.496094 154.414062 C 188.207031 154.347656 188.785156 154.929688 188.785156 155.703125 Z M 188.785156 155.703125 " fill-opacity="1" fill-rule="nonzero"/></g><g clip-path="url(#843b6ab8bb)"><g clip-path="url(#9867b6b4ba)"><g transform="matrix(1, 0, 0, 1, 166, 151)"><g clip-path="url(#68491520d6)"><g clip-path="url(#86d418fda6)"><g clip-path="url(#e78bef75a4)"><path fill="#02142c" d="M 0.378906 0.136719 L 42.621094 0.136719 L 42.621094 42.378906 L 0.378906 42.378906 Z M 0.378906 0.136719 " fill-opacity="1" fill-rule="nonzero"/></g></g></g></g></g></g><g clip-path="url(#6cdecb010a)"><g clip-path="url(#bf71316427)"><g transform="matrix(1, 0, 0, 1, 166, 145)"><g clip-path="url(#4f7fa8f22d)"><g clip-path="url(#f5547e63b1)"><g clip-path="url(#1989b630b2)"><path fill="#c89344" d="M 0.378906 0.707031 L 42.621094 0.707031 L 42.621094 42.945312 L 0.378906 42.945312 Z M 0.378906 0.707031 " fill-opacity="1" fill-rule="nonzero"/></g></g></g></g></g></g><g clip-path="url(#a43f65bf60)"><path fill="#02142c" d="M 194.25 167.503906 C 193.429688 166.941406 192.261719 166.496094 190.785156 166.175781 C 190.753906 166.171875 190.730469 166.144531 190.730469 166.113281 C 190.730469 166.113281 190.730469 159.195312 190.730469 159.1875 C 190.730469 159.140625 190.785156 159.109375 190.824219 159.132812 C 191.277344 159.375 191.664062 159.691406 191.980469 160.0625 C 192.324219 160.480469 192.585938 161.015625 192.773438 161.703125 C 192.84375 161.972656 193.015625 162.207031 193.277344 162.386719 C 193.90625 162.808594 194.863281 162.691406 195.324219 162.140625 C 195.542969 161.878906 195.632812 161.546875 195.574219 161.234375 C 195.292969 159.636719 194.535156 158.457031 193.261719 157.625 C 192.511719 157.136719 191.675781 156.753906 190.777344 156.488281 C 190.75 156.480469 190.730469 156.453125 190.730469 156.425781 L 190.730469 153.066406 C 190.75 152.636719 190.59375 152.300781 190.289062 152.113281 C 190.003906 151.945312 189.640625 151.945312 189.359375 152.113281 C 189.054688 152.296875 188.894531 152.632812 188.914062 153.050781 C 188.914062 153.050781 188.914062 156.042969 188.914062 156.042969 C 188.914062 156.085938 188.882812 156.105469 188.84375 156.105469 C 187.921875 156.011719 187.105469 156 186.203125 156.066406 C 186.167969 156.070312 186.132812 156.039062 186.132812 156.003906 L 186.132812 153.066406 C 186.148438 152.640625 185.996094 152.300781 185.691406 152.113281 C 185.40625 151.945312 185.042969 151.945312 184.761719 152.113281 C 184.457031 152.296875 184.296875 152.632812 184.316406 153.050781 L 184.316406 156.320312 C 184.316406 156.351562 184.296875 156.375 184.269531 156.382812 C 183.144531 156.683594 182.1875 157.175781 181.425781 157.84375 C 180.054688 159.046875 179.355469 160.605469 179.355469 162.484375 C 179.355469 164.234375 180.046875 165.519531 181.46875 166.402344 C 182.074219 166.78125 183.019531 167.140625 184.273438 167.464844 C 184.296875 167.46875 184.316406 167.492188 184.316406 167.523438 L 184.316406 175.304688 C 184.316406 175.351562 184.273438 175.386719 184.230469 175.363281 C 183.394531 175.011719 182.730469 174.492188 182.253906 173.824219 C 181.878906 173.300781 181.621094 172.675781 181.46875 171.921875 C 181.355469 171.339844 180.773438 170.917969 180.089844 170.917969 C 179.648438 170.917969 179.230469 171.101562 178.96875 171.410156 C 178.75 171.65625 178.65625 171.96875 178.707031 172.285156 C 178.957031 173.890625 179.699219 175.222656 180.90625 176.246094 C 181.820312 177.03125 182.953125 177.585938 184.265625 177.898438 C 184.28125 177.90625 184.316406 177.914062 184.316406 178 L 184.316406 181.167969 C 184.296875 181.597656 184.457031 181.9375 184.761719 182.125 C 184.902344 182.207031 185.0625 182.25 185.222656 182.25 C 185.386719 182.25 185.550781 182.203125 185.691406 182.117188 C 185.988281 181.941406 186.148438 181.597656 186.132812 181.183594 L 186.132812 178.273438 C 186.148438 178.230469 186.15625 178.21875 186.199219 178.203125 C 187.03125 178.269531 187.960938 178.265625 188.839844 178.191406 C 188.871094 178.1875 188.894531 178.203125 188.914062 178.261719 L 188.914062 181.167969 C 188.894531 181.601562 189.054688 181.941406 189.359375 182.117188 C 189.636719 182.289062 190.003906 182.292969 190.289062 182.121094 C 190.59375 181.9375 190.753906 181.601562 190.734375 181.183594 L 190.734375 177.9375 C 190.730469 177.910156 190.753906 177.878906 190.78125 177.871094 C 191.808594 177.621094 192.785156 177.242188 193.683594 176.742188 C 195.476562 175.738281 196.351562 174.113281 196.351562 171.765625 C 196.351562 169.882812 195.664062 168.488281 194.25 167.503906 Z M 184.316406 164.554688 C 184.316406 164.574219 184.304688 164.597656 184.285156 164.613281 C 184.277344 164.617188 184.25 164.621094 184.230469 164.617188 C 183.933594 164.515625 183.703125 164.421875 183.53125 164.335938 C 182.574219 163.832031 182.113281 163.066406 182.113281 161.992188 C 182.113281 161.042969 182.515625 160.191406 183.316406 159.464844 C 183.566406 159.238281 183.875 159.042969 184.226562 158.886719 C 184.246094 158.875 184.273438 158.878906 184.289062 158.890625 C 184.304688 158.902344 184.316406 158.921875 184.316406 158.945312 Z M 188.914062 175.828125 C 188.914062 175.859375 188.886719 175.886719 188.859375 175.894531 C 188.082031 175.980469 187.105469 175.980469 186.1875 175.871094 C 186.160156 175.867188 186.132812 175.839844 186.132812 175.808594 C 186.132812 175.808594 186.132812 167.996094 186.132812 167.972656 C 186.132812 167.933594 186.175781 167.90625 186.210938 167.910156 C 186.210938 167.910156 188.808594 168.460938 188.867188 168.480469 C 188.894531 168.488281 188.914062 168.511719 188.914062 168.539062 Z M 188.914062 165.695312 C 188.914062 165.714844 188.902344 165.738281 188.890625 165.746094 C 188.875 165.757812 188.851562 165.757812 188.839844 165.757812 L 187.613281 165.492188 C 187.203125 165.402344 186.308594 165.195312 186.222656 165.171875 C 186.1875 165.164062 186.132812 165.148438 186.132812 165.101562 L 186.132812 158.488281 C 186.132812 158.453125 186.164062 158.429688 186.1875 158.425781 C 186.507812 158.394531 186.851562 158.378906 187.214844 158.378906 C 187.816406 158.378906 188.351562 158.421875 188.859375 158.503906 C 188.886719 158.507812 188.914062 158.535156 188.914062 158.566406 Z M 190.816406 175.46875 C 190.78125 175.480469 190.730469 175.453125 190.730469 175.414062 C 190.730469 175.414062 190.730469 169.074219 190.730469 169.074219 C 190.730469 169.027344 190.777344 168.996094 190.816406 169.015625 C 191.449219 169.230469 191.949219 169.457031 192.347656 169.707031 C 193.125 170.207031 193.519531 171.054688 193.519531 172.226562 C 193.519531 173.777344 192.609375 174.867188 190.816406 175.46875 Z M 190.816406 175.46875 " fill-opacity="1" fill-rule="nonzero"/></g></svg>